<svg xmlns="http://www.w3.org/2000/svg" width="72" height="24" viewBox="0 0 72 24">
    <g fill="none" fill-rule="evenodd">
        <path fill="#FF5058" d="M10.63.242c.584-.322 1.293-.323 1.878 0l9.57 5.264c.708.388 1.1 1.17.99 1.97-.466 3.439-2.462 11.763-10.695 15.708-.51.245-1.105.256-1.626.034C2.003 19.48.33 10.89.01 7.434c-.073-.778.319-1.526 1.004-1.903zm4.078 6.077h-4.525c-.157 0-.295.082-.336.233l-1.915 6.94c-.028.104-.007.222.06.309.065.086.168.148.276.148h2.481l-1.42 4.407c-.05.157.015.315.158.397.054.031.114.046.173.046.096 0 .191-.04.26-.115l6.264-6.962c.093-.102.116-.196.06-.321-.056-.126-.18-.154-.318-.154h-2.779l1.88-4.428c.047-.108.036-.271-.029-.369-.064-.098-.173-.13-.29-.13z" transform="translate(1.2)"/>
        <path fill="#1E1D29" d="M35.811 4.324c1.556 0 2.866.628 3.895 1.866 1.035 1.247 1.56 2.736 1.56 4.425 0 1.834-.52 3.385-1.544 4.61-1.018 1.219-2.355 1.836-3.973 1.836-1.735 0-2.954-.499-3.623-1.483l-.269-.396-.063 6.5c-.001.081-.069.148-.15.148h-2.407c-.083 0-.15-.068-.15-.15V4.877c0-.083.067-.15.15-.15h2.404c.082 0 .15.067.15.15v1.22l.263-.308c.833-.972 2.097-1.465 3.757-1.465zm22.862.403c.06 0 .114.035.138.09l3.245 7.467 3.404-7.47c.024-.053.078-.087.137-.087h2.728c.076 0 .114.05.128.07.013.022.04.08.006.147l-8.37 16.74c-.026.052-.077.084-.135.084h-2.656c-.077 0-.116-.051-.129-.073-.013-.022-.04-.08-.003-.148l3.576-6.625-4.989-9.978c-.034-.068-.007-.125.006-.146.014-.021.052-.071.128-.071zm-10.94-.402c1.68 0 2.964.503 3.818 1.496l.264.305v-1.25c0-.082.067-.15.15-.15h2.342c.083 0 .15.068.15.15v11.782h-2.642v-1.37l-.264.308c-.833.972-2.097 1.465-3.757 1.465-1.656 0-2.997-.647-3.984-1.924-.996-1.288-1.502-2.82-1.502-4.553 0-1.73.515-3.224 1.53-4.44 1.007-1.207 2.317-1.82 3.895-1.82zm-12.458 2.3c-1.013 0-1.865.415-2.532 1.232-.659.81-.993 1.752-.993 2.805 0 1.053.355 2.008 1.057 2.837.708.836 1.538 1.26 2.468 1.26 1.095 0 1.968-.393 2.593-1.17.619-.767.932-1.747.932-2.912 0-1.082-.313-2.035-.93-2.832-.626-.81-1.499-1.22-2.595-1.22zm13.01 0c-1.042 0-1.903.377-2.56 1.12-.65.736-.982 1.723-.982 2.932 0 1.21.336 2.202.998 2.948.666.753 1.537 1.135 2.59 1.135 1.051 0 1.912-.372 2.558-1.104.641-.726.967-1.729.967-2.979 0-1.167-.336-2.142-.997-2.9-.667-.764-1.534-1.151-2.575-1.151z" transform="translate(1.2)"/>
    </g>
</svg>
