<svg xmlns="http://www.w3.org/2000/svg" width="32" height="32" viewBox="0 0 32 32" fill="none">
    <path fill-rule="evenodd" clip-rule="evenodd"
        d="M31.1024 30.725C30.4023 31.5347 29.3848 32 28.3145 32H3.68553C2.61516 32 1.59766 31.5347 0.89759 30.725C0.318615 30.0553 0 29.1997 0 28.3145V8.48916C0 7.60394 0.318615 6.74829 0.89759 6.07866C1.59766 5.26898 2.61516 4.80364 3.68553 4.80364H6.0628C6.65662 4.80364 7.21973 4.53976 7.59972 4.08343L10.4003 0.720204C10.7803 0.263877 11.3434 0 11.9372 0H20.0628C20.6566 0 21.2197 0.263877 21.5997 0.720204L24.4003 4.08343C24.7803 4.53976 25.3434 4.80364 25.9372 4.80364H28.3145C29.3848 4.80364 30.4023 5.26898 31.1024 6.07866C31.6814 6.74829 32 7.60394 32 8.48916V28.3145C32 29.1997 31.6814 30.0553 31.1024 30.725ZM16 9.6C20.4183 9.6 24 13.1817 24 17.6C24 22.0171 20.4183 25.6 16 25.6C11.5817 25.6 8 22.0171 8 17.6C8 13.1817 11.5817 9.6 16 9.6ZM16 22.4C18.6472 22.4 20.8 20.2472 20.8 17.6C20.8 14.9528 18.6472 12.8 16 12.8C13.3528 12.8 11.2 14.9528 11.2 17.6C11.2 20.2472 13.3528 22.4 16 22.4Z"
        fill="#CCCCCC" />
</svg>