<svg xmlns="http://www.w3.org/2000/svg" width="16" height="14" viewBox="0 0 16 14">
    <g fill="none" fill-rule="evenodd">
        <path stroke="#CCC" d="M-16.5-17.5h49v49h-49z"/>
        <g fill="#7681EB" fill-rule="nonzero">
            <path d="M13 0H3L0 5c0 1.1.9 2 2 2s2-.9 2-2c0 1.1.9 2 2 2s2-.9 2-2c0 1.1.9 2 2 2s2-.9 2-2c0 1.1.9 2 2 2s2-.9 2-2l-3-5zM13 8c-1.7 0-3 1.3-3 3s1.3 3 3 3 3-1.3 3-3-1.3-3-3-3zm1.6 2.8v.5h-1.3v1.3h-.6v-1.3h-1.3v-.6h1.3V9.4h.6v1.3h1.2l.1.1zM3 13V8H2v5H1v1h8v-1z"/>
        </g>
    </g>
</svg>
