<svg width="20" height="20" viewBox="0 0 20 20" fill="none" xmlns="http://www.w3.org/2000/svg">
<g id="Icon (&#236;&#149;&#132;&#236;&#157;&#180;&#236;&#189;&#152;)/24/ic_radio_on">
<path id="Selection Control / Check / on" fill-rule="evenodd" clip-rule="evenodd" d="M10 0C4.47715 0 0 4.47715 0 10C0 15.5228 4.47715 20 10 20C15.5228 20 20 15.5228 20 10C20 4.47715 15.5228 0 10 0ZM15.248 7.53309C15.511 7.17622 15.4763 6.67101 15.1492 6.35385L15.0558 6.27473C14.6989 6.01173 14.1937 6.04639 13.8765 6.37351L8.70536 11.7056L6.00218 8.9191L5.91127 8.83714C5.5627 8.56323 5.05666 8.58227 4.72954 8.89943C4.37268 9.24543 4.36387 9.81521 4.70987 10.1721L8.05915 13.6265L8.15211 13.7101C8.50865 13.9886 9.02734 13.9608 9.35146 13.6265L15.1688 7.62649L15.248 7.53309Z" fill="#D80C18"/>
<path id="check" d="M15.1493 6.35541C15.4765 6.67258 15.5111 7.17778 15.2481 7.53465L15.169 7.62805L9.35162 13.6281C9.0275 13.9623 8.50881 13.9902 8.15226 13.7116L8.05931 13.6281L4.71003 10.1736C4.36403 9.81677 4.37284 9.24699 4.7297 8.90099C5.05682 8.58383 5.56285 8.5648 5.91143 8.8387L6.00234 8.92066L8.70552 11.7072L13.8767 6.37508C14.1939 6.04795 14.6991 6.0133 15.0559 6.2763L15.1493 6.35541Z" fill="white"/>
</g>
</svg>
