<svg width="20" height="20" viewBox="0 0 20 20" fill="none" xmlns="http://www.w3.org/2000/svg">
<g id="Icon (&#236;&#149;&#132;&#236;&#157;&#180;&#236;&#189;&#152;)/24/ic_radio_on">
<path id="Selection Control / Check / off" fill-rule="evenodd" clip-rule="evenodd" d="M10 0C4.47715 0 0 4.47715 0 10C0 15.5228 4.47715 20 10 20C15.5228 20 20 15.5228 20 10C20 4.47715 15.5228 0 10 0ZM15.248 7.53309C15.511 7.17622 15.4763 6.67101 15.1492 6.35385L15.0558 6.27473C14.6989 6.01173 14.1937 6.04639 13.8765 6.37351L8.70536 11.7056L6.00218 8.9191L5.91127 8.83714C5.5627 8.56323 5.05666 8.58227 4.72954 8.89943C4.37268 9.24543 4.36387 9.81521 4.70987 10.1721L8.05915 13.6265L8.15211 13.7101C8.50865 13.9886 9.02734 13.9608 9.35146 13.6265L15.1688 7.62649L15.248 7.53309Z" fill="#E5E5E5"/>
</g>
</svg>
