<svg xmlns="http://www.w3.org/2000/svg" width="40" height="40" viewBox="0 0 40 40">
    <g fill="none" fill-rule="evenodd">
        <rect width="40" height="40" fill="#DCDBE4" rx="2"/>
        <path fill="#FFF" d="M29.8 9a1.2 1.2 0 0 1 1.2 1.2V21c0 .318-.126.624-.351.848l-10.8 10.8a1.196 1.196 0 0 1-1.697 0l-10.8-10.8a1.199 1.199 0 0 1 0-1.696l10.8-10.8c.224-.225.53-.352.848-.352h10.8zM19 30.103l1.903-1.903-9.103-9.103L9.897 21 19 30.103zm9.6-9.6V11.4h-9.103l-6 6 9.103 9.103 6-6zM25 16.2a1.2 1.2 0 1 1 0-2.4 1.2 1.2 0 0 1 0 2.4z"/>
    </g>
</svg>
