<svg width="48" height="54" viewBox="0 0 48 54" xmlns="http://www.w3.org/2000/svg" xmlns:xlink="http://www.w3.org/1999/xlink">
    <defs>
        <path d="M48 33.053c0 .57 0 1.141-.003 1.713-.003.48-.009.96-.022 1.441-.029 1.046-.091 2.103-.28 3.138a10.472 10.472 0 0 1-.994 2.984 10.03 10.03 0 0 1-1.867 2.54 10.144 10.144 0 0 1-2.57 1.847c-.966.486-1.954.794-3.018.983-1.047.186-2.115.248-3.174.276C34.035 48 33.458 48 32.88 48H15.12c-2.219-.007-2.705-.012-3.19-.025-1.06-.028-2.128-.09-3.175-.276a10.771 10.771 0 0 1-3.018-.983 10.13 10.13 0 0 1-2.57-1.846 10.053 10.053 0 0 1-1.868-2.54 10.524 10.524 0 0 1-.994-2.985c-.189-1.035-.25-2.092-.28-3.138a63.71 63.71 0 0 1-.02-1.441C0 34.194 0 33.623 0 33.053V14.947c0-.57 0-1.142.004-1.712.003-.481.009-.961.022-1.442.028-1.047.09-2.103.279-3.138a10.52 10.52 0 0 1 .994-2.984 10.109 10.109 0 0 1 4.438-4.386A10.771 10.771 0 0 1 8.755.3C9.802.115 10.87.053 11.929.025 13.965 0 14.543 0 15.12 0h17.288L26.25.002 32.88 0c2.219.007 2.705.012 3.192.025 1.059.028 2.127.09 3.174.276 1.064.189 2.052.497 3.018.983.948.478 1.818 1.101 2.57 1.846a10 10 0 0 1 1.867 2.54c.493.956.804 1.933.994 2.985.189 1.035.251 2.091.28 3.138.013.48.02.961.022 1.442.003.57.003 1.142.003 1.712v18.106z" id="a"/>
    </defs>
    <g fill="none" fill-rule="evenodd">
        <g transform="translate(0 3)">
            <mask id="b" fill="#fff">
                <use xlink:href="#a"/>
            </mask>
            <path fill="#D80C18" mask="url(#b)" d="M0 0h48v48H0z"/>
            <g mask="url(#b)" fill="#FFF">
                <path d="M34.864 22.9 19.066 39.815a.155.155 0 0 1-.268-.126l1.763-14.327H13.25a.156.156 0 0 1-.114-.262L28.933 8.185a.155.155 0 0 1 .268.126l-1.763 14.327h7.312c.137 0 .208.162.114.262z"/>
            </g>
        </g>
        <path d="M0 0h48v54H0z"/>
    </g>
</svg>
