<svg xmlns="http://www.w3.org/2000/svg" width="86" height="23" viewBox="0 0 86 23">
    <path fill="#cccccc" fill-rule="nonzero" d="M19.28 5.15L10.607.16a1.511 1.511 0 0 0-1.35 0L.647 5.15A1.47 1.47 0 0 0 0 6.313V16.3c.015.468.254.9.642 1.163l8.624 4.99c.42.214.915.214 1.334 0l8.686-4.99c.406-.255.67-.685.715-1.163V6.313a1.543 1.543 0 0 0-.72-1.163zm-5.096 5.885l-6.062 6.746a.335.335 0 0 1-.419.067.347.347 0 0 1-.15-.402l1.378-4.287h-2.4a.33.33 0 0 1-.324-.419l1.854-6.785a.374.374 0 0 1 .323-.285h4.377a.38.38 0 0 1 .279.19.375.375 0 0 1 .028.335l-1.82 4.27h2.707a.34.34 0 0 1 .251.56l-.022.01zm50.256 1.42c2.49 0 4.515 1.66 4.515 3.66 0 2.002-2.054 3.678-4.515 3.678-2.462 0-4.466-1.693-4.466-3.677s2.043-3.661 4.466-3.661zm0 5.46v-.005c1.228 0 2.193-.794 2.193-1.794s-1.004-1.783-2.193-1.783c-1.19 0-2.16.788-2.16 1.783 0 .995.97 1.8 2.16 1.8zM33.872 9.18v3.247h-7.726V3.91h2.166v2.632h3.4V3.91h2.155v3.409h2.79V3.144h2.172v11.625h-2.166v-5.59h-2.79zm-2.166 1.391l.006-2.19h-3.4v2.19h3.394zm8.965-4.174V4.385h6.47v3.66c.012.67-.054 1.34-.196 1.996a4.563 4.563 0 0 1-.798 1.676 9.2 9.2 0 0 1-1.675 1.677 47.654 47.654 0 0 1-2.88 2.034l-1.306-1.676a31.87 31.87 0 0 0 2.478-1.677 7.21 7.21 0 0 0 1.413-1.353c.306-.394.525-.85.642-1.335a7.783 7.783 0 0 0 .178-1.65v-1.34h-4.326zM61.03 9.415a1.86 1.86 0 0 1-.396.447c-.313.288-.64.558-.983.81-.374.302-.77.604-1.166.9-.397.296-.827.598-1.273.9l-1.34-1.632c.564-.352 1.11-.738 1.613-1.118.503-.38.96-.738 1.334-1.062.298-.25.546-.553.732-.894.182-.345.28-.728.284-1.118v-.883h-3.243V3.91h8.518v1.866h-3.092v.894c.009.188.033.375.073.56.039.176.109.344.206.497.1.17.217.33.352.475.17.185.356.353.558.503.38.296.787.559 1.211.855.424.296.871.576 1.318.855l-1.217 1.582a46.377 46.377 0 0 1-2.194-1.481c-.352-.263-.687-.498-.91-.688a1.62 1.62 0 0 1-.385-.413zm20.19 3.57l.05.012.235 1.844c-.413.067-.882.129-1.373.168-.491.04-1 .078-1.558.1-.558.023-1.116.057-1.674.062-.558.006-1.117.045-1.675.045H72.2V4.385h7.898V6.24h-5.582v2.632h4.946v1.856h-4.946v2.627h1.24c.854 0 1.769-.062 2.74-.1.972-.04 1.887-.157 2.724-.27zm-50.127.683v3.867h7.882v1.856H28.62v-5.723h2.473zm21.173-10.43v-.094h2.317v14.978l-2.317.553v-8.568h-1.39v8.015l-2.322.553V3.144h2.322v4.952h1.39V3.239zm30.595-.094h2.473v14.939l-2.473.592V10.88h-2.78V8.872h2.78V3.144zm-13.754 0V7.01h2.166v1.861h-2.166v3.555H66.633V3.144h2.473z"/>
</svg>
