<svg xmlns="http://www.w3.org/2000/svg" xmlns:xlink="http://www.w3.org/1999/xlink" width="52" height="52" viewBox="0 0 52 52">
    <defs>
        <path id="a" d="M16.3 22.183l15.86 15.863a7.143 7.143 0 0 1-1.118.087H7.092A7.09 7.09 0 0 1 0 31.043L0 29.881l16.3-7.699zm21.833-10.31v19.17a7.088 7.088 0 0 1-3.54 6.139L18.538 21.127l19.595-9.254zM31.043 0a7.09 7.09 0 0 1 7.09 7.09v2.206L0 27.305V7.091A7.09 7.09 0 0 1 7.093 0h23.95z"/>
        <path id="c" d="M14.098 0C20.6 0 26.053 4.493 27.531 10.548c.057.235-.255.546-.466.477-.212-.07-.43-.157-.65-.244l-9.9 10.313-.887-.851 9.471-9.868a2.542 2.542 0 0 0-.364-.027c-1.693 0-3.254.837-4.504 1.82l-.218.175a.937.937 0 0 1-.582.214l-4.018 7.476-1.083-.582 4.018-7.477c-1.205-.895-2.67-1.626-4.25-1.626s-3.044.726-4.25 1.624l4.019 7.48-1.083.58-4.01-7.461a.891.891 0 0 1-.568-.21c-1.288-1.067-2.941-2.013-4.744-2.013a2.27 2.27 0 0 0-.362.03l9.47 9.865-.887.85L1.798 10.8a9.555 9.555 0 0 1-.244.09l-.227.074a.491.491 0 0 1-.616-.592l.006-.023C2.265 4.395 7.669 0 14.098 0z"/>
        <linearGradient id="d" x1="50%" x2="50%" y1="0%" y2="39.903%">
            <stop offset="0%" stop-color="#9B9B9B"/>
            <stop offset="100%" stop-color="#B2B2B2"/>
        </linearGradient>
    </defs>
    <g fill="none" fill-rule="evenodd">
        <g transform="translate(6.933 8.194)">
            <mask id="b" fill="#fff">
                <use xlink:href="#a"/>
            </mask>
            <use fill="#EEE" xlink:href="#a"/>
            <path fill="#CCC" fill-rule="nonzero" d="M6.83 6.76H5.615l.245-2.25.002-.043c0-.204-.153-.37-.34-.37a.338.338 0 0 0-.278.157L3.141 7.648a.396.396 0 0 0-.068.222c0 .204.152.37.34.37h1.201l-.248 2.277-.001.039c0 .204.152.37.34.37a.337.337 0 0 0 .276-.155l2.12-3.42a.396.396 0 0 0 .069-.222c0-.203-.152-.369-.34-.369z" mask="url(#b)"/>
        </g>
        <g transform="translate(17.885 .867)">
            <mask id="e" fill="#fff">
                <use xlink:href="#c"/>
            </mask>
            <use fill="#B2B2B2" fill-rule="nonzero" xlink:href="#c"/>
            <ellipse cx="14.073" cy="13.315" stroke="url(#d)" stroke-width="1.586" mask="url(#e)" rx="4.791" ry="13.188"/>
        </g>
        <g transform="translate(24.03 19.303)">
            <rect width="15.364" height="15.364" fill="#999" rx="1.273"/>
            <path fill="#666" d="M5.121 0h5.121v7.67a.636.636 0 0 1-1.09.447l-.963-.98a.636.636 0 0 0-.896-.01L6.2 8.183a.636.636 0 0 1-1.079-.458V0z"/>
        </g>
    </g>
</svg>
