<svg xmlns="http://www.w3.org/2000/svg" xmlns:xlink="http://www.w3.org/1999/xlink" width="52" height="52" viewBox="0 0 52 52">
    <defs>
        <path id="a" d="M15.986 21.757l15.638 15.638a6.132 6.132 0 0 1-.251.005H6.028a6.027 6.027 0 0 1-6.027-6.027L0 29.307l15.986-7.55zM37.4 11.646l.001 19.727a6.027 6.027 0 0 1-3.228 5.339L18.182 20.72l19.217-9.074zM31.373 0A6.027 6.027 0 0 1 37.4 6.027l-.001 3.091L0 26.78V6.027A6.027 6.027 0 0 1 6.029 0h25.345z"/>
        <path id="c" d="M13.827 0c6.377 0 11.725 4.407 13.174 10.346.057.23-.25.535-.456.467-.209-.07-.421-.154-.637-.24l-9.711 10.115-.87-.835 9.29-9.677a2.493 2.493 0 0 0-.358-.027c-1.66 0-3.19.82-4.417 1.785l-.214.172a.92.92 0 0 1-.573.21l-3.939 7.332-1.062-.57 3.94-7.335c-1.181-.877-2.618-1.594-4.167-1.594-1.55 0-2.986.712-4.168 1.594l3.941 7.334-1.062.57-3.932-7.318a.874.874 0 0 1-.554-.202l-.004-.003c-1.263-1.047-2.884-1.975-4.653-1.975-.118 0-.236.01-.353.03l9.285 9.674-.87.835-9.693-10.097c-.08.03-.16.06-.24.088l-.222.073a.482.482 0 0 1-.6-.603C2.222 4.31 7.523 0 13.828 0z"/>
        <linearGradient id="d" x1="50%" x2="50%" y1="0%" y2="39.903%">
            <stop offset="0%" stop-color="#007DFF"/>
            <stop offset="100%" stop-color="#3499FF"/>
        </linearGradient>
    </defs>
    <g fill="none" fill-rule="evenodd">
        <g transform="translate(7 8.186)">
            <mask id="b" fill="#fff">
                <use xlink:href="#a"/>
            </mask>
            <use fill="#CEE3F8" xlink:href="#a"/>
            <path fill="#90C4FA" fill-rule="nonzero" d="M6.699 6.63H5.507l.24-2.206.002-.043c0-.2-.15-.363-.333-.363a.332.332 0 0 0-.273.154L3.08 7.501a.388.388 0 0 0-.066.217c0 .2.15.363.333.363h1.179l-.244 2.234-.001.038c0 .2.15.362.333.362a.33.33 0 0 0 .27-.15L6.966 7.21a.388.388 0 0 0 .067-.218c0-.199-.15-.362-.333-.362z" mask="url(#b)"/>
        </g>
        <g transform="translate(17.74 1)">
            <mask id="e" fill="#fff">
                <use xlink:href="#c"/>
            </mask>
            <use fill="#3499FF" fill-rule="nonzero" xlink:href="#c"/>
            <ellipse cx="13.803" cy="13.059" stroke="url(#d)" stroke-width="1.348" mask="url(#e)" rx="4.803" ry="13.038"/>
        </g>
        <g transform="translate(23.768 19.082)">
            <rect width="15.068" height="15.068" fill="#007DFF" rx="1.082"/>
            <path fill="#003B76" d="M5.023 0h5.022v7.726a.54.54 0 0 1-.926.38L7.974 6.942a.54.54 0 0 0-.762-.01L5.94 8.162a.54.54 0 0 1-.916-.39V0z"/>
        </g>
    </g>
</svg>
