<svg xmlns="http://www.w3.org/2000/svg" width="16" height="16" viewBox="0 0 16 16" fill="none">
    <mask id="mask0_2257_61" style="mask-type:luminance" maskUnits="userSpaceOnUse" x="0" y="0"
        width="16" height="16">
        <path fill-rule="evenodd" clip-rule="evenodd"
            d="M16 11.0176C16 11.2078 16 11.398 15.9989 11.5885C15.998 11.7487 15.9961 11.9088 15.9916 12.069C15.9822 12.4177 15.9612 12.77 15.8985 13.1149C15.8349 13.4652 15.7312 13.7914 15.5669 14.1098C15.406 14.4224 15.1958 14.7085 14.9448 14.9566C14.6939 15.2047 14.4041 15.4128 14.0879 15.5719C13.7661 15.734 13.4365 15.8368 13.0821 15.8997C12.733 15.9617 12.3769 15.9824 12.0238 15.9917C11.3451 16 11.1527 16 10.9603 16H7.25015H5.03997C4.30046 15.9978 4.13844 15.9961 3.97643 15.9917C3.6234 15.9824 3.26731 15.9617 2.91819 15.8997C2.56377 15.8368 2.23416 15.734 1.91237 15.5719C1.59587 15.4128 1.30642 15.2047 1.05546 14.9566C0.804488 14.7085 0.594234 14.4224 0.433057 14.1098C0.269092 13.7914 0.165359 13.4652 0.101502 13.1149C0.0387604 12.77 0.0181254 12.4177 0.00864441 12.069C0.00418278 11.9088 0.00223082 11.7487 0.00139426 11.5885C0 11.398 0 11.2078 0 11.0176V8.83266V7.16734V4.9824C0 4.79219 0 4.60171 0.00139426 4.41177C0.00223082 4.25133 0.00418278 4.09117 0.00864441 3.93101C0.0181254 3.58201 0.0387604 3.22999 0.101502 2.88485C0.165359 2.53448 0.269092 2.20864 0.433057 1.89025C0.594234 1.57737 0.804488 1.29122 1.05546 1.0434C1.30642 0.795023 1.59587 0.58717 1.91237 0.42811C2.23416 0.266018 2.56377 0.163195 2.91819 0.100343C3.26731 0.0383177 3.6234 0.0176427 3.97643 0.00827C4.65516 0 4.84756 0 5.03997 0H7.25015H10.8025L8.74985 0.000827L10.9603 0C11.6995 0.00220533 11.8616 0.00385933 12.0238 0.00827C12.3769 0.0176427 12.733 0.0383177 13.0821 0.100343C13.4365 0.163195 13.7661 0.266018 14.0879 0.42811C14.4041 0.58717 14.6939 0.795023 14.9448 1.0434C15.1958 1.29122 15.406 1.57737 15.5669 1.89025C15.7312 2.20864 15.8349 2.53448 15.8985 2.88485C15.9612 3.22999 15.9822 3.58201 15.9916 3.93101C15.9961 4.09117 15.998 4.25133 15.9989 4.41177C16 4.60171 16 4.79219 16 4.9824V7.16734V8.83266V11.0176Z"
            fill="white" />
    </mask>
    <g mask="url(#mask0_2257_61)">
        <rect width="16" height="16" fill="#EF0E0E" />
        <path
            d="M12.2797 7.56451H9.10435L9.61935 3.07454C9.62635 3.0125 9.55218 2.97564 9.50693 3.01856L3.68746 8.58286C3.64361 8.62484 3.67393 8.69855 3.73411 8.69808L6.83021 8.66496L6.38657 13.2599C6.38051 13.3219 6.45468 13.3574 6.49946 13.3145L12.3259 7.6802C12.3693 7.63868 12.3395 7.56544 12.2797 7.56544V7.56451Z"
            fill="black" />
    </g>
</svg>