<svg xmlns="http://www.w3.org/2000/svg" width="86" height="21" viewBox="0 0 86 21" fill="none">
    <g opacity="0.3">
        <path
            d="M15.6585 9.11758H9.88563L10.8219 0.954849C10.8346 0.842055 10.6998 0.775057 10.6175 0.85308L0.0377655 10.9689C-0.0419537 11.0453 0.0131713 11.1793 0.122573 11.1784L5.75126 11.1182L4.94473 19.4717C4.93371 19.5845 5.06855 19.649 5.14997 19.571L15.7424 9.3279C15.8213 9.25243 15.767 9.11928 15.6585 9.11928V9.11758Z"
            fill="white" />
        <path
            d="M30.4343 13.1881V8.06914H28.3259V11.1536C28.3259 11.2096 28.2818 11.2554 28.2259 11.2588L19.1031 11.7015C19.0429 11.704 18.9929 11.6565 18.9929 11.5963V1.92059C18.9929 1.86292 19.0395 1.81543 19.098 1.81543H22.0188C22.0765 1.81543 22.124 1.86208 22.124 1.92059V4.26807H25.1948V1.92059C25.1948 1.86292 25.2415 1.81543 25.3 1.81543H28.2208C28.2784 1.81543 28.3259 1.86208 28.3259 1.92059V5.12717H30.4343V1.74334C30.4343 1.68568 30.4809 1.63818 30.5394 1.63818H33.4602C33.5179 1.63818 33.5654 1.68483 33.5654 1.74334V13.1881C33.5654 13.2458 33.5187 13.2933 33.4602 13.2933H30.5394C30.4817 13.2933 30.4343 13.2466 30.4343 13.1881ZM22.1248 8.70266L25.1957 8.63735V6.75971H22.1248V8.70266Z"
            fill="white" />
        <path
            d="M20.4441 13.1968H23.4014C23.459 13.1968 23.5065 13.2434 23.5065 13.3019V15.2466L33.4553 14.8039C33.5147 14.8013 33.5647 14.8488 33.5647 14.909V17.7102C33.5647 17.7671 33.5198 17.8129 33.4638 17.8154L20.4484 18.2572C20.389 18.2589 20.3398 18.2115 20.3398 18.1521V13.3019C20.3398 13.2443 20.3865 13.1968 20.445 13.1968H20.4441Z"
            fill="white" />
        <path
            d="M35.0888 15.6899L35.2728 15.4245C35.8164 14.6434 36.3346 13.8012 36.8146 12.9218C37.2963 12.0372 37.7288 11.123 38.102 10.2037C38.4802 9.27251 38.811 8.31927 39.0832 7.37028C39.3037 6.60616 39.4826 5.83695 39.6166 5.07962L39.6489 4.89898H35.7655C35.7079 4.89898 35.6604 4.85234 35.6604 4.79382V2.17157C35.6604 2.1139 35.707 2.06641 35.7655 2.06641H42.9216C42.9835 2.06641 43.0318 2.11899 43.0259 2.18005L43.0064 2.3997C42.8656 4.00426 42.6205 5.52232 42.2813 6.91062C41.9438 8.29638 41.5358 9.60581 41.0728 10.8058C40.6114 12.0025 40.0933 13.1313 39.5327 14.1625C38.9746 15.187 38.3988 16.1538 37.8187 17.0383L37.7102 17.2037C37.6788 17.2512 37.6152 17.2656 37.5668 17.2351L35.0871 15.6874V15.6891L35.0888 15.6899Z"
            fill="white" />
        <path
            d="M48.1139 18.2206V10.7711H46.9181V18.2206C46.9181 18.2783 46.8715 18.3258 46.813 18.3258H43.9982C43.9405 18.3258 43.893 18.2791 43.893 18.2206V1.74335C43.893 1.68568 43.9397 1.63818 43.9982 1.63818H46.813C46.8706 1.63818 46.9181 1.68483 46.9181 1.74335V7.82914H48.1139V1.74335C48.1139 1.68568 48.1606 1.63818 48.2191 1.63818H51.0678C51.1254 1.63818 51.1729 1.68483 51.1729 1.74335V18.2206C51.1729 18.2783 51.1263 18.3258 51.0678 18.3258H48.2191C48.1614 18.3258 48.1139 18.2791 48.1139 18.2206Z"
            fill="white" />
        <path
            d="M52.5783 9.20317C55.41 6.92948 56.599 4.90682 56.6109 4.88477L56.7559 4.6507H53.4612C53.4035 4.6507 53.356 4.60406 53.356 4.54554V1.95721C53.356 1.89954 53.4026 1.85205 53.4612 1.85205H63.3735C63.4311 1.85205 63.4786 1.89869 63.4786 1.95721V4.54639C63.4786 4.60406 63.432 4.65155 63.3735 4.65155H60.2636L60.2186 4.73042C60.0617 5.00944 59.8947 5.29185 59.7208 5.56832L59.6385 5.70062L63.4829 7.97007C63.5329 7.99975 63.5499 8.06506 63.5193 8.11509L62.0717 10.4923C62.0411 10.5431 61.9741 10.5584 61.9241 10.5253L58.0187 7.94039L57.9297 8.05234C56.7856 9.49576 55.0946 10.9299 54.5213 11.4014C54.4763 11.4379 54.4119 11.4311 54.3745 11.3861L52.5766 9.20317H52.5783Z"
            fill="white" />
        <path
            d="M64.6764 10.7041V1.74335C64.6764 1.68568 64.723 1.63818 64.7815 1.63818H67.5632C67.6209 1.63818 67.6684 1.68483 67.6684 1.74335V4.64122H69.8403C69.898 4.64122 69.9455 4.68787 69.9455 4.74638V7.47804C69.9455 7.53571 69.8988 7.5832 69.8403 7.5832H67.6684V10.7041C67.6684 10.7618 67.6217 10.8093 67.5632 10.8093H64.7815C64.7239 10.8093 64.6764 10.7626 64.6764 10.7041Z"
            fill="white" />
        <path
            d="M82.8699 18.2206V10.7711H80.1671C80.1094 10.7711 80.0619 10.7245 80.0619 10.666V7.9343C80.0619 7.87663 80.1086 7.82914 80.1671 7.82914H82.8699V1.74335C82.8699 1.68568 82.9165 1.63818 82.975 1.63818H85.8958C85.9535 1.63818 86.001 1.68483 86.001 1.74335V18.2206C86.001 18.2783 85.9543 18.3258 85.8958 18.3258H82.975C82.9174 18.3258 82.8699 18.2791 82.8699 18.2206Z"
            fill="white" />
        <path
            d="M71.4619 1.94177H80.0181C80.0758 1.94177 80.1233 1.98841 80.1233 2.04693V4.67172C80.1233 4.72939 80.0766 4.77689 80.0181 4.77689H74.4878V7.82996H78.7638C78.8215 7.82996 78.869 7.87661 78.869 7.93512V10.6668C78.869 10.7244 78.8223 10.7719 78.7638 10.7719H74.4878V14.4051L81.6634 13.7673C81.7244 13.7623 81.777 13.8106 81.777 13.8717V16.4727C81.777 16.527 81.7355 16.5719 81.682 16.577L71.4712 17.5464C71.4093 17.5523 71.3567 17.504 71.3567 17.4421V2.04608C71.3567 1.98841 71.4034 1.94092 71.4619 1.94092V1.94177Z"
            fill="white" />
        <path
            d="M61.1069 19.0746C55.2103 19.0746 54.3291 16.5821 54.3291 15.0954C54.3291 11.8065 58.014 11.1162 61.1069 11.1162C65.4135 11.1162 67.8848 12.5673 67.8848 15.0954C67.8848 16.5804 67.0036 19.0746 61.1069 19.0746ZM61.1069 13.8937C59.3819 13.8937 57.4025 14.031 57.4025 15.1005C57.4025 15.9231 58.5797 16.3056 61.1069 16.3056C63.6342 16.3056 64.8113 15.9214 64.8113 15.1005C64.8113 14.2795 63.5647 13.8937 61.1069 13.8937Z"
            fill="white" />
    </g>
</svg>