<svg xmlns="http://www.w3.org/2000/svg" width="72" height="72" viewBox="0 0 72 72">
    <path fill="#333" fill-rule="nonzero" d="M38.456 41.333h-4.912c-6.118 0-11.13 4.728-11.52 10.667h27.952c-.39-5.939-5.402-10.667-11.52-10.667zM53 55H19v-2.255c0-7.941 6.517-14.412 14.544-14.412h4.912c8.027 0 14.544 6.47 14.544 14.412V55zm-9.12-27.333C43.88 23.446 40.365 20 36 20s-7.88 3.446-7.88 7.667c0 4.22 3.515 7.666 7.88 7.666s7.88-3.446 7.88-7.666zm3 0c0 5.89-4.871 10.666-10.88 10.666s-10.88-4.775-10.88-10.666S29.991 17 36 17s10.88 4.776 10.88 10.667z"/>
</svg>
