<svg xmlns="http://www.w3.org/2000/svg" width="43" height="30" viewBox="0 0 43 30">
    <g fill="#007DFF" fill-rule="evenodd">
        <path fill-rule="nonzero" d="M28 27c6.627 0 12-5.373 12-12S34.627 3 28 3 16 8.373 16 15s5.373 12 12 12zm0 3c-8.284 0-15-6.716-15-15 0-8.284 6.716-15 15-15 8.284 0 15 6.716 15 15 0 8.284-6.716 15-15 15z"/>
        <path d="M25.543 21.88L22.84 10.461l1.217-.428L26.76 21.45z"/>
        <path d="M26.857 21.88l2.703-11.418-1.217-.428L25.64 21.45zM32.457 21.88l2.703-11.418-1.217-.428L31.24 21.45z"/>
        <path d="M31.143 21.88L28.44 10.461l1.217-.428L32.36 21.45z"/>
        <path d="M22 14.717h14v1.102H22z"/>
        <g transform="rotate(-90 11.5 11)">
            <rect width="3" height="7" y="3" rx="1"/>
            <rect width="3" height="7" x="12" y="3" rx="1"/>
            <rect width="3" height="10" x="6" rx="1"/>
        </g>
    </g>
</svg>
