<svg xmlns="http://www.w3.org/2000/svg" width="42" height="40" viewBox="0 0 42 40">
    <g fill="#FF5058" fill-rule="evenodd">
        <path fill-rule="nonzero" d="M39 12v-1a1 1 0 0 0 1 1h-1zm0 0H10.27l-.775-3H40a2 2 0 0 1 2 2v25a2 2 0 0 1-2 2H17v-3h22V12zm1 23a1 1 0 0 0-1 1v-1h1zm0 0a1 1 0 0 0-1 1v-1h1zm-1-23H10.27l-.775-3H40a2 2 0 0 1 2 2v25a2 2 0 0 1-2 2H17v-3h22V12zm0-1a1 1 0 0 0 1 1h-1v-1z"/>
        <path d="M4 7h3v13H4z"/>
        <path fill-rule="nonzero" d="M32.523 21a2.523 2.523 0 1 0 0 5.047H39V21h-6.477zm0-3H42v11.047h-9.477a5.523 5.523 0 1 1 0-11.047zM32.946 3H9.505A2.52 2.52 0 0 0 7 5.535l.006.96A2.52 2.52 0 0 0 9.526 9h23.456l-.036-6zM9.52 0h24.42a2 2 0 0 1 2 1.988L36 12H9.526a5.52 5.52 0 0 1-5.52-5.487L4 5.553A5.52 5.52 0 0 1 9.52 0z"/>
        <g>
            <path fill-rule="nonzero" d="M12 39.5C5.649 39.5.5 34.351.5 28S5.649 16.5 12 16.5 23.5 21.649 23.5 28 18.351 39.5 12 39.5zm0-3a8.5 8.5 0 1 0 0-17 8.5 8.5 0 0 0 0 17z"/>
            <path d="M7.072 23.896l1.462-.338 2.249 9.744-1.462.338zM11.072 23.896l1.462-.338 2.249 9.744-1.462.338z"/>
            <path d="M6.071 26.558h12v1.5h-12z"/>
            <path d="M15.15 23.558l1.468.312-2.08 9.782-1.467-.312zM11.15 23.558l1.468.312-2.08 9.782-1.467-.312z"/>
        </g>
    </g>
</svg>
