<svg xmlns="http://www.w3.org/2000/svg" xmlns:xlink="http://www.w3.org/1999/xlink" width="450" height="105" viewBox="0 0 450 105">
    <defs>
        <path id="a" d="M0 0h92.212v105H0z"/>
        <path id="c" d="M0 105h394.581V0H0z"/>
    </defs>
    <g fill="none" fill-rule="evenodd" transform="translate(28)">
        <mask id="b" fill="#fff">
            <use xlink:href="#a"/>
        </mask>
        <path fill="#F70000" d="M67.133 51.247L38.958 82.553a1.56 1.56 0 0 1-1.943.31c-.641-.368-.936-1.08-.71-1.784l6.386-19.818H31.533c-.488 0-.949-.28-1.245-.668a1.62 1.62 0 0 1-.263-1.39l8.609-31.205c.187-.679.805-1.048 1.509-1.048h20.348c.527 0 1.018.15 1.307.59.29.438.34 1.174.133 1.657L53.474 49.11H65.97c.618 0 1.179.127 1.43.692.252.564.146.987-.267 1.446M89.85 23.923L50.074.743c-1.712-.99-4.329-.99-6.042 0L3.498 23.922C1.785 24.913 0 27.34 0 29.318v46.363c0 1.978 1.879 4.407 3.592 5.396l40.39 23.181c1.714.99 4.636.99 6.349 0l39.459-23.18c1.713-.99 2.422-3.419 2.422-5.397V29.318c0-1.978-.649-4.406-2.362-5.395" mask="url(#b)"/>
        <path fill="#F70000" d="M297.925 83.024c-5.511 0-9.994-3.727-9.994-8.308 0-4.54 4.483-8.232 9.994-8.232 5.695 0 10.157 3.616 10.157 8.232 0 4.659-4.462 8.308-10.157 8.308m0-25.223c-11.197 0-20.656 7.746-20.656 16.915 0 9.37 9.266 16.99 20.656 16.99 11.525 0 20.902-7.62 20.902-16.99 0-9.327-9.377-16.915-20.902-16.915"/>
        <mask id="d" fill="#fff">
            <use xlink:href="#c"/>
        </mask>
        <path fill="#F70000" d="M130.812 49.109h15.726V39.102h-15.726v10.007zm25.734-6.433h12.866V68.41h10.008V14.798h-10.008v19.3h-12.866V18.372h-10.008v12.152h-15.725V18.372h-10.008v39.315h35.741V42.676zM187.998 29.81h20.015v6.208c0 2.915-.354 5.477-.818 7.617-.462 2.13-1.5 4.211-2.968 6.184-1.47 1.977-3.685 4.077-6.522 6.24-2.845 2.17-6.71 4.803-11.46 7.828l-.092.053 6.04 7.7.067-.046c5.481-3.614 9.96-6.78 13.312-9.41 3.364-2.64 6.003-5.227 7.844-7.693 1.838-2.464 3.057-5.044 3.688-7.668.63-2.622.916-5.728.916-9.23V20.516h-30.022v9.293zM282.167 43.764c.217.442.806 1.069 1.794 1.906 1.044.887 2.46 1.96 4.207 3.185a243.83 243.83 0 0 0 10.14 6.847l.067.044 5.632-7.31-.085-.051a167.748 167.748 0 0 1-6.094-3.944 187.272 187.272 0 0 1-5.6-3.944c-1.092-.798-1.989-1.58-2.665-2.322-.677-.74-1.228-1.48-1.636-2.197-.406-.717-.814-1.492-.946-2.306-.136-.822-.337-1.723-.337-2.682v-4.04h14.295v-8.578h-39.315v8.579h15.012v4.038c0 1.96-.542 3.72-1.329 5.232-.788 1.514-1.975 2.9-3.387 4.12-1.743 1.49-3.842 3.142-6.17 4.908a128.69 128.69 0 0 1-7.47 5.23l-.092.054 6.208 7.547.064-.044a145.587 145.587 0 0 0 5.894-4.15 217.524 217.524 0 0 0 5.397-4.147c1.913-1.441 3.44-2.703 4.54-3.75 1.043-.995 1.658-1.725 1.876-2.225M375.565 60.273c-3.876.522-8.115 1.062-12.6 1.245-4.463.183-8.732.458-12.683.458h-5.738V49.824h22.875v-8.577h-22.875V29.095h25.734v-8.578h-36.456v50.037h13.988c2.603 0 5.18-.184 7.663-.211 2.59-.025 5.156-.177 7.624-.282 2.5-.104 4.928-.293 7.214-.475a77.964 77.964 0 0 0 6.352-.77l.085-.025-1.094-8.524-.09.006zM143.679 63.406h-11.437v26.448h47.893v-8.577h-36.456zM241.61 15.23v22.442h-6.434V14.798h-10.721v71.749l10.72-2.543v-37.04h6.435v39.583l10.723-2.543V14.798H241.61z" mask="url(#d)"/>
        <path fill="#F70000" d="M383.145 14.798v26.448h-12.867v9.293h12.867v36.009l11.437-2.727V14.798zM319.526 14.798h-11.438v42.89h11.438V41.245h10.007v-8.578h-10.007z" mask="url(#d)"/>
    </g>
</svg>
