<svg xmlns="http://www.w3.org/2000/svg" width="250" height="145" viewBox="0 0 250 145">
    <g fill="none" fill-rule="evenodd">
        <g fill="#FFF4E2" stroke="#FDA112" stroke-width="2">
            <path d="M236.195 142.773l-4.996-21.866.485-.392C242.73 111.597 249 99.719 249 87.087c0-26.489-27.489-48.071-61.5-48.071-34.011 0-61.5 21.582-61.5 48.07 0 26.49 27.489 48.072 61.5 48.072 9.11 0 17.938-1.55 26.01-4.502l.427-.156 22.258 12.273z"/>
            <path d="M26.486 130.13l26.342-14.526.381.096c7.332 1.833 15.023 2.778 22.878 2.778 41.515 0 75.087-26.359 75.087-58.74C151.174 27.359 117.602 1 76.087 1S1 27.359 1 59.739c0 18.713 11.28 35.99 30.107 47.03l.632.371-5.253 22.99z"/>
        </g>
        <g fill="#FFF" stroke="#FD9A0F" stroke-width="2" transform="translate(46 30)">
            <path d="M1 1h39v40H1zM40 15v26h28v-7.253L52.378 15H40z"/>
            <path d="M1 40h67v10H1z"/>
            <circle cx="17" cy="53" r="8"/>
            <circle cx="53" cy="53" r="8"/>
        </g>
        <g transform="translate(164 66)">
            <circle cx="25.714" cy="22.857" r="21.857" fill="#FFF" stroke="#FD9A0F" stroke-width="2"/>
            <path fill="#FD9A0F" d="M25.68 21.818h1.367l-.683-2.72-.684 2.72zm-.457 1.818l-2.508 9.978-.897-.339-.897.339-2.508-9.978H15v-1.818h2.956l-1.75-6.964 1.963-.74 1.937 7.704h3.424l1.937-7.705.897.339.896-.339 1.937 7.705h3.424l1.937-7.705 1.963.74-1.75 6.965h2.956v1.818h-3.413l-2.508 9.978-.897-.339-.897.339-2.508-9.978h-2.281zm-4.66 0l1.255 4.992 1.255-4.992h-2.51zm9.091 0l1.255 4.992 1.255-4.992h-2.51z"/>
        </g>
    </g>
</svg>
