<svg xmlns="http://www.w3.org/2000/svg" xmlns:xlink="http://www.w3.org/1999/xlink" viewBox="0 0 90.14 101.81"><defs><style>.cls-1{fill:#fff;}.cls-1,.cls-3{fill-rule:evenodd;}.cls-2{mask:url(#mask);}.cls-3{fill:#f70000;}</style><mask id="mask" x="0" y="0" width="90.14" height="101.81" maskUnits="userSpaceOnUse"><g id="b"><path id="a" class="cls-1" d="M0,0H90.14V101.81H0Z"/></g></mask></defs><title>자산 1</title><g id="레이어_2" data-name="레이어 2"><g id="레이어_1-2" data-name="레이어 1"><g class="cls-2"><path class="cls-3" d="M87,23.2,48,.72a6.78,6.78,0,0,0-6.08,0L3,23.2a6.66,6.66,0,0,0-3,5.23V73.38a6.64,6.64,0,0,0,3,5.23l38.91,22.48a6.65,6.65,0,0,0,6,0L87,78.61a6.83,6.83,0,0,0,3.17-5.23V28.43A6.85,6.85,0,0,0,87,23.2"/></g><path class="cls-1" d="M63.31,47.87a1.48,1.48,0,0,0-1.38-.9H49.81L58,27.83a1.51,1.51,0,0,0-1.4-2.11H36.88a1.51,1.51,0,0,0-1.46,1.11L27.07,57.19a1.51,1.51,0,0,0,1.06,1.86,1.4,1.4,0,0,0,.41.06H39.36l-6.2,19.26a1.52,1.52,0,0,0,2.58,1.48L63.05,49.5a1.49,1.49,0,0,0,.26-1.63"/></g></g></svg>