<svg width="250" height="169" viewBox="0 0 250 169" fill="none" xmlns="http://www.w3.org/2000/svg"><g clip-path="url(#clip0_1439_11395)"><path d="M116.329 85.3547L117.661 78.2627L111.841 74.7586L109.555 71.6594L107.452 67.7365L105.236 66.4521L104.633 63.8694L105.152 61.9847L108.251 60.0582L120.956 53.2314C120.956 53.2314 127.94 53.2314 129.02 53.9434C130.1 54.6554 132.54 55.2557 133.171 56.1352C133.802 57.0148 137.673 58.8436 137.673 58.8436L138.36 62.3477L137.224 69.3C137.224 69.3 134.054 74.4934 133.914 74.633C133.774 74.7726 129.258 77.7741 129.118 77.8299C128.978 77.8858 124.07 78.7792 124.07 78.7792L123.284 86.5273L116.315 85.3686L116.329 85.3547Z" fill="white"></path><path d="M138.578 61.0632C137.849 56.889 135.535 53.2453 132.057 50.8022C128.58 48.3591 124.358 47.4098 120.165 48.1358C115.972 48.8617 112.312 51.1652 109.858 54.6274C108.652 56.3306 107.824 58.2013 107.362 60.1698C105.342 60.6165 104.01 62.571 104.361 64.6092C104.641 66.2426 105.917 67.4572 107.46 67.7503C108.778 72.818 112.48 76.7688 117.136 78.5697L116.309 84.6147L117.164 84.7264L117.978 78.8629C118.861 79.1561 119.787 79.3655 120.726 79.4911C121.666 79.6168 122.619 79.6587 123.587 79.6168L122.774 85.4802L123.629 85.5919L124.457 79.547C124.835 79.5051 125.2 79.4632 125.578 79.3934C129.772 78.6675 133.432 76.364 135.886 72.9018C138.34 69.4396 139.294 65.2374 138.564 61.0632H138.578ZM135.185 72.4131C132.857 75.6939 129.407 77.8717 125.438 78.5418C117.753 79.8681 110.405 75.1075 108.357 67.7643L108.217 66.9406C106.661 67.0802 105.469 66.0053 105.202 64.4417C104.922 62.8083 106.029 61.2447 107.67 60.9515C107.951 60.9097 108.217 60.8957 108.484 60.9236C108.456 60.6444 108.526 60.3512 108.652 60.072C108.526 60.0581 108.385 60.0441 108.245 60.0441C108.694 58.2851 109.465 56.6098 110.545 55.0881C112.873 51.8074 116.323 49.6295 120.292 48.9594C121.848 48.6942 123.405 48.6663 124.919 48.8757C127.275 49.1968 129.533 50.0763 131.539 51.4863C134.834 53.7898 137.022 57.238 137.695 61.1889C138.382 65.1397 137.485 69.1185 135.157 72.3852L135.185 72.4131Z" fill="black"></path><path d="M109.258 62.7664C108.641 62.1102 107.701 61.8589 106.453 62.0264L106.565 62.878C107.519 62.7524 108.206 62.9199 108.627 63.3527C109.356 64.1205 109.09 65.5585 109.09 65.5724L109.945 65.7399C109.959 65.6701 110.31 63.8553 109.272 62.7664H109.258Z" fill="black"></path><path d="M149.183 132.192L141.582 129.135L140.292 138.754L140.194 139.48L115.259 136.073V141.839C116.578 142.132 117.882 142.398 119.13 142.649C124.01 143.654 128.231 144.52 130.601 145.874C131.331 146.293 131.934 146.683 132.424 147.06C132.649 147.2 134.556 148.456 134.234 149.671C134.219 149.727 134.205 149.783 134.177 149.839C134.135 149.922 134.093 150.006 134.023 150.09L132.845 149.922C133.084 149.783 133.252 149.615 133.308 149.434C133.392 149.127 133.238 148.233 130.223 146.502C127.951 145.204 123.8 144.352 118.976 143.361C111.599 141.839 102.414 139.968 94.855 135.515C94.7148 135.431 94.5746 135.348 94.4343 135.264C94.3081 135.18 94.1679 135.096 94.0417 135.012C93.9154 134.929 93.7892 134.845 93.6771 134.761C89.9187 132.109 87.8572 128.297 87.703 123.579L88.0956 119.433L87.9273 119.405L67.1723 115.412L66.7656 115.328C74.8152 76.9924 117.419 82.814 117.419 82.814C119.382 87.2534 122.972 83.9727 122.972 83.9727C146.154 91.2601 156.91 110.651 156.91 110.651L149.183 132.192Z" fill="#66BBFF"></path><path d="M203.61 154.753H128.078L134.655 111.545C134.88 110.051 136.156 108.92 137.642 108.92H207.186C208.981 108.92 210.327 110.526 210.06 112.341L203.61 154.739V154.753Z" fill="white" stroke="#170D42" stroke-width="0.4" stroke-miterlimit="10"></path><path d="M228.246 153.259H9.70113C8.36898 153.259 7.28906 154.334 7.28906 155.66C7.28906 156.986 8.36898 158.061 9.70113 158.061H228.246C229.578 158.061 230.658 156.986 230.658 155.66C230.658 154.334 229.578 153.259 228.246 153.259Z" fill="white" stroke="#170D42" stroke-width="0.4" stroke-miterlimit="10"></path><path d="M31.3723 28.6611H73.2189C82.4885 28.6611 90.0052 36.144 90.0052 45.3719V62.0827H31.3723C22.1026 62.0827 14.5859 54.5998 14.5859 45.3719C14.5859 36.144 22.1026 28.6611 31.3723 28.6611Z" stroke="#EAEAEA" stroke-miterlimit="10"></path><path d="M22.1995 0H80.9587C93.2153 0 103.172 9.91199 103.172 22.0995V44.1991H22.1995C9.95681 44.2131 0 34.3011 0 22.0995C0 9.91199 9.95681 0 22.1995 0Z" fill="#66BBFF"></path><path d="M37.5863 26.2879H35.6791V29.6105H31.0653V26.2879H24.1797V22.8815L31.3598 12.425H35.6651V22.8257H37.5723V26.3018L37.5863 26.2879ZM31.0793 22.8117V20.8153C31.0793 20.4384 31.0793 19.9358 31.1214 19.2936C31.1495 18.6515 31.1635 18.3164 31.1915 18.2885H31.0653C30.7989 18.8888 30.4903 19.4612 30.1538 19.9777L28.2466 22.8117H31.0934H31.0793Z" fill="white"></path><path d="M56.1295 21.0388C56.1295 24.0822 55.6106 26.3159 54.5869 27.7259C53.5632 29.1359 51.9925 29.8479 49.889 29.8479C47.7854 29.8479 46.2709 29.108 45.2191 27.6282C44.1673 26.1483 43.6484 23.9565 43.6484 21.0388C43.6484 18.121 44.1533 15.7338 45.191 14.3098C46.2148 12.8858 47.7854 12.1738 49.889 12.1738C51.9925 12.1738 53.4931 12.9137 54.5448 14.4075C55.5966 15.8873 56.1155 18.1071 56.1155 21.0527L56.1295 21.0388ZM48.3043 21.0388C48.3043 22.9793 48.4305 24.3195 48.6689 25.0455C48.9073 25.7714 49.328 26.1344 49.903 26.1344C50.478 26.1344 50.8987 25.7574 51.1371 25.0036C51.3755 24.2497 51.5017 22.9234 51.5017 21.0248C51.5017 19.1262 51.3755 17.786 51.1371 17.0181C50.8987 16.2503 50.478 15.8734 49.903 15.8734C49.328 15.8734 48.9213 16.2363 48.6689 16.9763C48.4305 17.7162 48.3043 19.0564 48.3043 21.0248V21.0388Z" fill="white"></path><path d="M75.6176 26.2881H73.7103V29.6107H69.0966V26.2881H62.2109V22.8817L69.3911 12.4253H73.6963V22.8259H75.6035V26.3021L75.6176 26.2881ZM69.1106 22.8119V20.8156C69.1106 20.4386 69.1106 19.9361 69.1527 19.2939C69.1807 18.6517 69.1947 18.3166 69.2228 18.2887H69.0966C68.8301 18.889 68.5216 19.4614 68.185 19.9779L66.2778 22.8119H69.1246H69.1106Z" fill="white"></path><path d="M124.672 66.0195L128.598 66.6338L128.08 55.7725L127.224 55.8143L127.687 65.6146L124.812 65.1679L124.672 66.0195Z" fill="black"></path><path d="M116.807 67.3456C116.652 67.4154 116.498 67.4991 116.344 67.5689L116.75 68.3368C118.223 67.5689 119.415 67.4014 120.326 67.8481C121.631 68.4903 121.939 70.2354 121.939 70.2493L122.795 70.1097C122.781 70.026 122.416 67.9179 120.719 67.0803C119.653 66.5498 118.349 66.6475 116.821 67.3456H116.807Z" fill="black"></path><path d="M112.528 67.2061C113.159 67.7226 114.113 67.3038 114.127 66.4801C114.127 65.447 114.351 63.7997 115.038 61.1891C116.749 54.7393 130.044 66.1032 138.921 57.8106C147.798 49.5181 133.536 37.2747 130.156 41.1976C126.79 45.1205 131.166 47.0331 127.996 47.6473C124.827 48.2616 107.676 44.7854 107.283 59.3742C107.255 60.2398 107.522 61.1053 108.012 61.8173C109.008 63.2692 110.845 65.7961 112.528 67.1921V67.2061Z" fill="black"></path><path d="M172.731 133.756C169.969 133.756 167.711 131.522 167.711 128.758C167.711 125.994 169.969 123.76 172.731 123.76C175.494 123.76 177.752 126.008 177.752 128.758C177.752 131.508 175.494 133.756 172.731 133.756ZM172.731 126.552C171.511 126.552 170.516 127.544 170.516 128.758C170.516 129.973 171.511 130.964 172.731 130.964C173.951 130.964 174.947 129.973 174.947 128.758C174.947 127.544 173.951 126.552 172.731 126.552Z" fill="#66BBFF"></path><path d="M170.766 172.552C174.44 170.905 178.044 169.09 181.536 167.066" stroke="white" stroke-width="2" stroke-miterlimit="10"></path><path d="M59.9238 117.227C60.3165 110.4 56.1234 103.406 56.1234 103.406C55.7167 102.68 55.282 102.01 54.7912 101.354C54.5528 101.019 54.3004 100.698 54.0339 100.391C53.9217 100.251 53.1925 99.6367 53.1925 99.6367C53.1925 99.6367 53.0102 101.466 52.9541 102.443C52.9541 102.638 52.9541 102.834 52.884 103.015C52.7017 103.518 51.6499 103.783 51.1871 103.992C49.9951 104.509 48.775 104.998 47.569 105.472C46.9519 105.71 46.3349 105.947 45.7319 106.198C45.4234 106.324 45.1148 106.449 44.8063 106.561C44.624 106.631 44.4137 106.729 44.2173 106.798L40.4169 104.872C40.445 104.984 40.6693 105.793 40.9638 106.98C41.2864 108.376 41.5809 109.786 41.9455 111.182C42.7729 114.965 43.5302 119.349 43.0954 120.968C42.2821 123.97 40.3328 124.542 37.2616 128.381L37.2335 128.409C36.6866 128.968 36.1818 129.568 35.6769 130.182C33.4612 132.542 31.8204 134.035 29.6608 142.454V142.482C29.5345 142.928 29.4504 143.375 29.3522 143.836L28.4688 154.362C28.9035 154.362 29.3382 154.278 29.7309 154.083C32.6899 154.25 39.7017 153.832 40.459 153.832H49.5043C50.6542 153.832 52.4773 154.125 53.9217 153.943C69.5862 152.729 59.5733 123.942 59.9519 117.269L59.9238 117.227Z" fill="white" stroke="#170D42" stroke-width="0.4" stroke-miterlimit="10"></path><path d="M50.1778 111.224C50.0656 111.224 48.9017 111.67 48.9718 113.499C49.0419 115.328 51.3418 114.867 52.085 114.672C52.8283 114.477 54.2307 112.997 54.1886 112.313C54.1465 111.629 52.7862 110.051 51.482 110.637L50.1778 111.224Z" fill="#9BDBFC"></path><path d="M40.4062 104.844L44.2067 106.77L41.3318 108.627" fill="#9BDBFC"></path><path d="M52.875 103.001L53.1835 99.6226L54.656 101.047L55.6096 102.54L52.875 103.001Z" fill="#9BDBFC"></path><path d="M28.6963 146.977C28.6963 146.879 28.6823 146.795 28.6683 146.697C28.528 145.078 28.4299 143.459 28.3457 141.839C28.1774 138.433 28.1354 135.04 28.2055 131.634C28.2616 129.107 28.5701 126.329 27.0415 124.123C25.7373 122.252 24.2929 122.113 22.4277 121.959C21.9229 120.954 22.021 118.958 22.021 118.064C22.021 116.612 22.2735 114.965 23.3393 113.862C25.0782 112.047 27.7848 113.15 29.9865 112.606C34.9929 111.363 33.2119 105.011 32.8754 101.354C32.665 99.0919 29.103 99.078 29.3133 101.354C29.4816 103.182 29.8462 105.095 29.8182 106.938C29.8042 108.124 29.8322 108.878 28.5701 109.255C28.0652 109.409 27.3641 109.255 26.8452 109.255C24.2508 109.227 22.021 109.814 20.3522 111.908C18.5432 114.183 18.2767 117.115 18.5712 119.893C18.7956 122.001 18.8938 124.975 21.4741 125.408C23.8722 125.826 24.6294 126.301 24.6996 128.87C24.7416 130.587 24.6154 132.318 24.6014 134.049C24.5874 137.944 24.7276 141.825 25.0221 145.706C25.1904 147.926 24.8118 151.961 26.7049 153.608C27.2519 154.083 27.8549 154.292 28.4439 154.306C28.2335 151.388 28.4299 148.833 28.6963 146.949V146.977Z" fill="black"></path><path d="M29.3404 143.794V143.654C29.3404 143.654 28.9898 144.911 28.6953 146.963C28.6953 147.047 28.7093 147.13 28.7234 147.214C28.8636 146.083 29.088 144.939 29.3404 143.78V143.794Z" fill="white"></path><path d="M28.7207 147.228C28.7207 147.144 28.7066 147.06 28.6926 146.977C28.4262 148.861 28.2298 151.416 28.4402 154.334L29.3237 143.808C29.0713 144.952 28.8469 146.111 28.7066 147.242L28.7207 147.228Z" fill="#170D42"></path><path d="M53.7447 112.34C53.0014 112.089 52.2161 112.047 51.4728 111.838C51.5289 111.754 51.571 111.67 51.6131 111.601C51.7252 111.405 51.8374 111.21 51.9356 111C52.0057 110.861 51.9356 110.707 51.7954 110.651C51.5429 110.553 51.1363 110.791 50.9119 110.861C50.5473 110.986 50.1967 111.14 49.8741 111.335C49.6918 111.447 49.7339 111.698 49.9302 111.768L50.8698 112.061C50.5473 112.857 50.2668 113.667 50.0424 114.49C49.9583 114.784 50.421 114.909 50.4912 114.616C50.7155 113.82 50.982 113.024 51.2905 112.257C52.0478 112.48 52.8612 112.536 53.6184 112.773C53.9129 112.871 54.0251 112.41 53.7447 112.326V112.34Z" fill="#170D42"></path><path d="M47.2942 110.372C47.182 110.33 47.0838 110.344 46.9857 110.372C46.9296 110.372 46.8735 110.386 46.8174 110.456C46.7753 110.512 46.7473 110.582 46.7192 110.651C46.7052 110.693 46.6912 110.721 46.6771 110.763C46.6631 110.847 46.6771 110.903 46.7192 110.958C46.7473 111.028 46.7753 111.084 46.8454 111.14C47.0558 111.321 47.3783 111.252 47.5186 111.014C47.6728 110.777 47.5466 110.47 47.2802 110.372H47.2942Z" fill="#170D42"></path><path d="M54.3489 107.552C54.2367 107.51 54.1385 107.524 54.0403 107.552C53.9842 107.552 53.9282 107.566 53.8721 107.636C53.83 107.692 53.8019 107.762 53.7739 107.832C53.7599 107.873 53.7458 107.901 53.7318 107.943C53.7178 108.027 53.7318 108.083 53.7739 108.139C53.8019 108.208 53.83 108.264 53.9001 108.32C54.1105 108.502 54.433 108.432 54.5732 108.194C54.7275 107.957 54.6013 107.65 54.3348 107.552H54.3489Z" fill="#170D42"></path><path d="M56.1397 122.741C56.1397 121.834 56.1397 120.913 56.0696 120.005C56.0696 119.824 56.0415 119.656 56.0135 119.475C55.9854 119.279 55.9293 119.098 55.8452 118.93C55.1861 117.66 52.8441 118.763 51.9326 119.209C50.9229 119.698 49.9833 120.354 49.0718 121.024C48.5529 121.415 47.9639 121.89 47.6834 122.49C47.3889 123.132 47.5572 124.165 47.6273 124.85C47.6694 125.366 47.7676 125.911 48.0901 126.329C48.4127 126.748 49.0297 126.972 49.4784 126.692C49.5766 127.237 49.6748 127.809 49.9553 128.298C50.1796 128.675 50.5302 128.954 50.9509 129.08C51.2314 129.163 51.2174 129.107 51.3296 129.415V129.443C51.3997 129.68 51.4979 129.903 51.61 130.099V130.141C51.7082 130.28 51.7924 130.434 51.9186 130.545C51.9887 130.601 52.0728 130.657 52.157 130.685C52.3253 130.797 52.5076 130.866 52.7179 130.88C53.2368 130.922 53.7697 130.783 54.0642 130.322C54.3727 129.833 54.3026 129.261 54.2745 128.703C54.6672 128.689 55.0178 128.479 55.2001 128.06C55.3964 127.628 55.3403 127.097 55.3544 126.636C55.3544 126.092 55.3403 125.548 55.2983 125.003C56.3781 125.115 56.1397 123.453 56.1537 122.728L56.1397 122.741Z" fill="#9BDBFC"></path><path d="M59.9238 117.227C60.3165 110.4 56.1234 103.406 56.1234 103.406C55.7167 102.68 55.282 102.01 54.7912 101.354C54.5528 101.019 54.3004 100.698 54.0339 100.391C53.9217 100.251 53.1925 99.6367 53.1925 99.6367C53.1925 99.6367 53.0102 101.466 52.9541 102.443C52.9541 102.638 52.9541 102.834 52.884 103.015C52.7017 103.518 51.6499 103.783 51.1871 103.992C49.9951 104.509 48.775 104.998 47.569 105.472C46.9519 105.71 46.3349 105.947 45.7319 106.198C45.4234 106.324 45.1148 106.449 44.8063 106.561C44.624 106.631 44.4137 106.729 44.2173 106.798L40.4169 104.872C40.445 104.984 40.6693 105.793 40.9638 106.98C41.2864 108.376 41.5809 109.786 41.9455 111.182C42.7729 114.965 43.5302 119.349 43.0954 120.968C42.2821 123.97 40.3328 124.542 37.2616 128.381L37.2335 128.409C36.6866 128.968 36.1818 129.568 35.6769 130.182C33.4612 132.542 31.8204 134.035 29.6608 142.454V142.482C29.5345 142.928 29.4504 143.375 29.3522 143.836L28.4688 154.362C28.9035 154.362 29.3382 154.278 29.7309 154.083C32.6899 154.25 39.7017 153.832 40.459 153.832H49.5043C50.6542 153.832 52.4773 154.125 53.9217 153.943C69.5862 152.729 59.5733 123.942 59.9519 117.269L59.9238 117.227Z" stroke="#170D42" stroke-width="0.4" stroke-miterlimit="10"></path><path d="M114.951 142.104C114.867 141.937 114.951 135.529 114.951 135.529L143.251 139.563C143.251 139.563 141.274 146.823 141.4 146.753C141.526 146.683 143.517 145.525 143.714 145.58C143.91 145.636 144.836 145.734 144.962 145.734C145.088 145.734 145.747 145.985 145.747 145.985C145.747 145.985 146.434 146.655 146.771 146.753C147.108 146.851 147.697 147.8 147.697 147.8L148.089 150.299L145.509 153.315L138.188 159.89L136.211 167.219L128.077 166.074L123.085 166.842C123.085 166.842 117.938 167.233 117.812 167.233C117.686 167.233 111.445 166.675 111.305 166.647C111.165 166.619 96.7205 163.52 96.7205 163.52L87.6191 159.513L79.3311 153.999L74.5491 149.364C74.5491 149.364 70.6505 143.556 70.5944 143.319C70.5383 143.081 67.2287 135.278 67.2287 135.278L65.7422 127.46V120.731L67.4531 114.253L83.5102 116.556L88.755 117.59L87.6191 121.736L88.1099 125.128L89.7928 130.056C89.7928 130.056 92.9481 133.309 93.3127 134.049C93.6773 134.789 98.6557 137.051 98.9082 137.148C99.1606 137.246 107.168 140.247 107.168 140.247L114.951 142.104Z" fill="white"></path><path d="M136.536 160.63C136.143 161.621 134.937 162.333 132.89 162.752C132.09 162.962 131.151 163.143 130.085 163.297C130.478 163.604 130.828 164.009 130.772 164.511C130.73 164.902 130.464 165.391 129.286 165.893C128.879 166.061 128.36 166.242 127.715 166.41C126.817 166.647 125.639 166.884 124.139 167.108C119.273 167.834 109.919 167.624 99.5273 164.637C97.3957 164.023 95.0398 163.227 92.5996 162.222C85.7421 159.388 78.1833 154.85 72.7702 147.619C71.6202 146.083 70.33 144.003 69.138 141.504C69.0399 141.309 68.9557 141.113 68.8716 140.918C65.8565 134.315 63.6968 125.003 66.754 115.342L67.1607 115.426L67.5113 115.496C63.2621 128.898 69.3063 141.714 73.4012 147.186C80.6094 156.819 91.7161 161.607 99.7517 163.925C109.358 166.689 118.866 167.15 124.013 166.382C125.555 166.145 126.705 165.907 127.547 165.684C127.575 165.684 127.589 165.684 127.617 165.67C129.776 165.084 129.973 164.567 129.987 164.441C130.029 164.12 129.356 163.688 128.809 163.464C128.781 163.464 128.753 163.45 128.725 163.436L128.192 163.241C120.044 163.436 110.522 160.449 110.424 160.421L110.662 159.709C110.76 159.737 120.437 162.766 128.528 162.473C130.337 162.403 131.698 162.236 132.735 162.026C135.077 161.384 135.694 160.616 135.807 160.114C135.849 159.918 135.835 159.723 135.793 159.527C135.694 159.206 135.512 158.899 135.344 158.676C135.232 158.536 135.105 158.396 134.979 158.257C134.979 158.257 134.965 158.243 134.951 158.243C134.544 157.824 134.082 157.475 133.759 157.28C130.323 158.578 122.919 157.712 110.157 154.599L110.354 153.873C118.88 155.953 130.169 158.327 133.969 156.358C134.839 155.744 135.246 155.13 135.19 154.515C135.19 154.474 135.175 154.432 135.161 154.39C134.937 153.538 133.969 152.784 133.282 152.352C133.072 152.212 132.848 152.1 132.637 151.975C132.609 151.961 132.581 151.947 132.581 151.947C131.922 151.598 131.277 151.318 130.842 151.165C125.008 151.667 110.943 148.554 110.34 148.429L110.522 147.703C110.662 147.731 123.844 150.634 129.987 150.467L130.87 150.411C131.221 150.383 131.529 150.341 131.796 150.285C132.188 150.202 132.539 150.09 132.805 149.936C133.044 149.797 133.212 149.629 133.268 149.448C133.352 149.141 133.198 148.247 130.183 146.516C127.911 145.218 123.76 144.366 118.936 143.375C111.56 141.853 102.374 139.983 94.8154 135.529C94.6751 135.445 94.5349 135.362 94.3947 135.278C94.2685 135.194 94.1282 135.11 94.002 135.027C93.8758 134.943 93.7496 134.859 93.6374 134.775C89.851 132.137 87.6914 128.339 87.5371 123.621C87.5231 123.006 87.5371 122.378 87.5792 121.736C87.6353 120.982 87.7334 120.2 87.8877 119.433C88.4627 116.375 89.7108 113.248 91.4497 110.721L92.0948 111.112C90.1455 114.086 88.6309 117.897 88.3645 121.331C87.9298 127.153 90.426 132.095 95.208 134.915C101.168 138.419 108.18 140.304 114.491 141.7C114.743 141.755 114.981 141.811 115.22 141.853C116.552 142.146 117.842 142.412 119.09 142.663C123.971 143.668 128.192 144.534 130.562 145.888C131.291 146.307 131.894 146.698 132.385 147.074C132.609 147.214 134.516 148.471 134.194 149.685C134.18 149.741 134.166 149.797 134.138 149.853C134.096 149.936 134.054 150.02 133.983 150.104C133.913 150.188 133.829 150.271 133.731 150.341C133.409 150.606 132.918 150.802 132.273 150.955C132.483 151.053 132.721 151.165 132.96 151.305C133.072 151.36 133.409 151.542 133.843 151.821C134.867 152.491 135.821 153.371 135.947 154.39C136.045 154.934 135.919 155.465 135.568 155.953C135.316 156.316 134.979 156.623 134.558 156.875C134.825 157.07 135.161 157.349 135.484 157.671C135.512 157.698 135.849 158.006 136.143 158.466L136.171 158.536C136.297 158.732 136.41 158.955 136.48 159.164V159.22C136.634 159.653 136.676 160.142 136.48 160.63H136.536Z" fill="black"></path><path d="M147.404 146.711C146.226 145.343 144.081 144.589 142.075 146.013L143.814 139.229L114.547 135.236V142.104H115.276V136.073L142.903 139.843L140.14 150.648L140 151.179L136.017 166.787L127.841 165.67L127.491 166.354L136.578 167.596L138.471 160.169L147.096 152.324C149.101 150.509 148.666 148.135 147.418 146.697L147.404 146.711ZM138.78 158.899L140.729 151.29L140.869 150.76L141.767 147.228C141.865 147.13 142.061 146.963 142.272 146.795C143.969 145.413 145.834 146.041 146.843 147.2C147.867 148.373 148.218 150.327 146.577 151.807L138.78 158.899Z" fill="black"></path><path d="M229.021 70.3193L160.67 70.3193V50.8444C160.67 40.0948 169.435 31.3694 180.233 31.3694L229.007 31.3694C239.806 31.3694 248.57 40.0948 248.57 50.8444C248.57 61.594 239.806 70.3193 229.007 70.3193H229.021Z" stroke="#9BDBFC" stroke-width="2" stroke-miterlimit="10"></path><path d="M220.31 48.6387L151.959 48.6387V29.1637C151.959 18.4141 160.724 9.68875 171.522 9.68875L220.296 9.68875C231.095 9.68875 239.859 18.4141 239.859 29.1637C239.859 39.9133 231.095 48.6387 220.296 48.6387H220.31Z" fill="#F5F5F5"></path><path d="M174.942 101.061C174.423 101.061 174.086 101.019 174.044 101.005L174.114 100.46C174.114 100.46 177.34 100.879 179.513 98.9246C180.832 97.724 181.519 95.8952 181.533 93.466C180.719 93.4521 179.85 93.2287 178.952 92.7959C175.222 91.009 171.912 85.8855 173.273 81.9486C174.016 79.7707 175.138 79.4496 175.937 79.5613C178.518 79.9243 181.771 85.7598 182.066 92.7122C182.066 92.782 182.066 92.8378 182.066 92.9076C183.202 92.7959 184.394 92.2235 185.375 90.6739C185.628 90.283 185.852 89.8642 186.048 89.4454C185.852 88.9847 185.684 88.4961 185.572 87.9935C185.305 86.8487 185.305 85.7458 185.543 84.7128C182.725 83.1213 180.2 80.3012 179.696 77.9838C179.513 77.1462 179.597 76.4202 179.962 75.8478C179.121 74.354 178.714 72.8184 178.854 71.4363C179.036 69.6214 179.892 68.2812 181.308 67.5553C181.35 67.5413 181.378 67.5134 181.421 67.4994C181.378 67.276 181.336 67.0527 181.294 66.8153C181.042 64.9865 181.294 62.683 182.262 61.0217C182.234 60.9938 182.206 60.9519 182.164 60.91C181.364 59.9468 180.719 58.2156 182.22 55.4375L182.697 55.7028C181.617 57.6991 181.575 59.3185 182.556 60.5331C182.837 60.1422 183.173 59.8072 183.566 59.5279C183.636 59.4861 183.706 59.4302 183.776 59.3883C184.323 58.0342 185.543 56.8196 187.212 56.0657C189.877 54.8512 195.402 56.4706 197.408 59.0533C198.403 60.3377 198.403 61.7337 197.408 62.9762C196.244 64.4141 194.673 65.9358 192.962 67.276C193.2 67.3319 193.439 67.3877 193.663 67.4436C194.42 67.4855 195.15 67.653 195.795 67.9741C198.039 68.5744 199.96 69.3003 200.773 70.6545C201.222 71.3944 201.306 72.3018 201.04 73.321C200.563 75.1638 199.09 76.4202 196.917 76.9088C195.655 79.1285 193.635 81.0411 191.518 81.8788C190.438 82.3116 189.176 82.3395 187.815 82.0044C187.913 83.0096 187.913 84.0566 187.815 85.1037C188.573 85.341 189.316 85.4527 190.017 85.3968C192.008 85.2572 193.916 86.3741 195.094 88.3983C196.173 90.2551 196.356 92.405 195.528 93.6336C195.122 94.2478 194.266 94.9319 192.569 94.7085C190.059 94.3735 187.661 92.5028 186.371 90.0597C186.217 90.3668 186.034 90.66 185.852 90.9531C184.884 92.4609 183.58 93.3125 182.08 93.4381C182.066 96.0348 181.322 98.0172 179.878 99.3295C178.237 100.809 176.12 101.047 174.942 101.047V101.061ZM186.665 89.4454C187.815 91.9164 190.171 93.843 192.639 94.178C193.761 94.3316 194.603 94.0384 195.08 93.3404C195.795 92.2794 195.598 90.3668 194.617 88.6776C193.537 86.8348 191.84 85.8296 190.059 85.9553C189.33 86.0111 188.545 85.8994 187.759 85.6621C187.577 86.9465 187.226 88.2308 186.679 89.4454H186.665ZM175.671 80.0779C174.703 80.0779 174.114 81.1668 173.792 82.1161C172.53 85.7877 175.657 90.6041 179.191 92.2933C179.794 92.5865 180.621 92.8797 181.519 92.9076C181.519 92.8518 181.519 92.782 181.519 92.7261C181.224 86.1367 178.181 80.4269 175.853 80.0918C175.783 80.0918 175.727 80.0918 175.657 80.0918L175.671 80.0779ZM186.062 84.978C185.838 86.0949 185.95 87.1279 186.132 87.8678C186.203 88.161 186.287 88.4542 186.385 88.7334C186.806 87.6864 187.086 86.5835 187.24 85.4806C186.848 85.341 186.455 85.1595 186.062 84.9641V84.978ZM186.203 84.4336C186.567 84.629 186.932 84.7965 187.296 84.9361C187.381 84.0706 187.381 83.205 187.324 82.3814C186.764 83.0654 186.413 83.7635 186.203 84.4475V84.4336ZM180.313 76.4062C180.144 76.8111 180.13 77.3137 180.257 77.8861C180.719 80.0081 183.089 82.6466 185.726 84.1823C186.006 83.3307 186.469 82.5349 187.114 81.8229C185.978 81.446 184.8 80.8038 183.664 79.9522C182.276 78.9052 181.14 77.6906 180.327 76.4202L180.313 76.4062ZM188.166 81.5298C189.33 81.795 190.424 81.7531 191.335 81.3902C193.228 80.6363 195.023 79.0029 196.23 77.0484C195.935 77.0903 195.641 77.1182 195.318 77.1322C194.645 77.1601 193.944 77.1322 193.242 77.0345C192.331 78.3049 190.915 79.6032 189.021 80.8736C188.713 81.083 188.418 81.3064 188.166 81.5298ZM180.649 75.8897C181.519 77.2997 182.739 78.5701 183.987 79.5055C185.039 80.3012 186.146 80.8876 187.198 81.2645C186.904 79.3659 186.231 77.6767 185.291 76.5319C184.548 75.6105 183.3 74.6612 181.617 75.2894C181.21 75.443 180.888 75.6524 180.649 75.9037V75.8897ZM182.683 74.5355C183.791 74.5355 184.842 75.094 185.726 76.1829C186.721 77.3974 187.423 79.1844 187.745 81.1947C188.04 80.9295 188.376 80.6782 188.727 80.4408C190.466 79.2821 191.784 78.1094 192.653 76.9647C190.059 76.49 187.577 75.2056 186.848 73.2651C186.511 72.3716 186.609 71.4502 187.086 70.5987C185.782 70.9895 184.576 71.0594 183.552 70.6964C182.683 70.3753 181.981 69.426 181.589 68.0718C180.327 68.714 179.597 69.8727 179.429 71.5201C179.289 72.8044 179.682 74.1586 180.369 75.415C180.649 75.1498 181 74.9404 181.435 74.7729C181.855 74.6193 182.276 74.5355 182.683 74.5355ZM193.593 76.5458C194.154 76.6017 194.729 76.6296 195.304 76.6017C195.753 76.5738 196.187 76.5319 196.594 76.4481C197.001 75.6943 197.323 74.8985 197.52 74.1028C197.997 72.2041 197.716 70.5149 196.734 69.3562C196.426 68.9932 196.061 68.714 195.655 68.5046C194.995 68.3231 194.294 68.1695 193.593 68.002H193.579C193.004 67.9741 192.415 68.0299 191.84 68.1556C191.49 68.3929 191.139 68.6302 190.788 68.8536C190.872 68.8955 190.957 68.9373 191.027 68.9932C193.228 70.2636 194.42 71.8551 194.477 73.6141C194.505 74.5774 194.21 75.5546 193.593 76.5598V76.5458ZM187.942 70.2776C187.226 71.1431 187.002 72.1064 187.353 73.0557C187.956 74.6891 190.312 76.0293 192.99 76.4621C193.635 75.4848 193.958 74.5216 193.916 73.6141C193.86 72.0506 192.766 70.6126 190.732 69.4399C190.564 69.3422 190.396 69.2445 190.227 69.1607C189.456 69.6075 188.685 69.9984 187.942 70.2776ZM197.071 68.9094C197.071 68.9094 197.113 68.9653 197.141 68.9932C198.249 70.2915 198.571 72.1483 198.053 74.2284C197.884 74.9125 197.618 75.6105 197.295 76.2666C199.006 75.7501 200.156 74.6891 200.549 73.1953C200.787 72.3018 200.717 71.5619 200.338 70.9477C199.778 70.0263 198.585 69.412 197.071 68.9234V68.9094ZM182.094 67.8345C182.43 69.049 183.019 69.8867 183.748 70.1519C184.814 70.5428 186.175 70.3613 187.619 69.8169C188.012 69.3841 188.502 68.9653 189.105 68.6163C186.511 67.4994 183.903 67.1923 182.094 67.8345ZM184.267 66.941C185.922 66.941 187.829 67.4017 189.723 68.2812C190.312 68.002 190.943 67.7786 191.588 67.639L191.742 67.5273C189.947 67.0666 188.194 66.5222 186.792 65.6706C184.8 64.47 183.959 63.1716 183.664 62.0548C183.328 61.8733 183.019 61.6639 182.739 61.4266C181.911 62.9343 181.673 65.0284 181.911 66.7455C181.939 66.941 181.967 67.1225 182.009 67.29C182.697 67.0527 183.468 66.941 184.309 66.941H184.267ZM184.323 62.3759C184.744 63.409 185.67 64.3722 187.058 65.2099C188.516 66.0894 190.382 66.6339 192.303 67.1225C194.126 65.7404 195.809 64.121 197.015 62.6551C197.87 61.6081 197.87 60.5191 197.015 59.4163C195.164 57.043 189.919 55.4794 187.479 56.5962C186.217 57.1686 185.221 58.0481 184.632 59.0393C185.586 58.7322 186.918 58.7182 188.685 59.5838C190.129 60.2958 190.83 60.9938 190.788 61.6499C190.76 61.985 190.536 62.4597 189.582 62.7668C188.292 63.1716 186.118 63.1158 184.337 62.3899L184.323 62.3759ZM184.113 61.6918C185.824 62.5295 188.096 62.6272 189.4 62.2223C189.905 62.0548 190.213 61.8314 190.227 61.5941C190.227 61.4405 190.143 60.8961 188.432 60.0584C186.792 59.2487 185.389 59.151 184.267 59.7653C184.141 60.1143 184.071 60.4633 184.043 60.8123C184.029 61.1194 184.043 61.4126 184.099 61.7058L184.113 61.6918ZM182.991 60.9519C183.145 61.0915 183.328 61.2311 183.51 61.3568C183.496 61.1474 183.496 60.9659 183.51 60.7844C183.51 60.6169 183.538 60.4493 183.566 60.2958C183.356 60.4912 183.173 60.7146 182.991 60.9659V60.9519Z" fill="black" class="block dark:hidden"></path><path d="M174.942 101.061C174.423 101.061 174.086 101.019 174.044 101.005L174.114 100.46C174.114 100.46 177.34 100.879 179.513 98.9246C180.832 97.724 181.519 95.8952 181.533 93.466C180.719 93.4521 179.85 93.2287 178.952 92.7959C175.222 91.009 171.912 85.8855 173.273 81.9486C174.016 79.7707 175.138 79.4496 175.937 79.5613C178.518 79.9243 181.771 85.7598 182.066 92.7122C182.066 92.782 182.066 92.8378 182.066 92.9076C183.202 92.7959 184.394 92.2235 185.375 90.6739C185.628 90.283 185.852 89.8642 186.048 89.4454C185.852 88.9847 185.684 88.4961 185.572 87.9935C185.305 86.8487 185.305 85.7458 185.543 84.7128C182.725 83.1213 180.2 80.3012 179.696 77.9838C179.513 77.1462 179.597 76.4202 179.962 75.8478C179.121 74.354 178.714 72.8184 178.854 71.4363C179.036 69.6214 179.892 68.2812 181.308 67.5553C181.35 67.5413 181.378 67.5134 181.421 67.4994C181.378 67.276 181.336 67.0527 181.294 66.8153C181.042 64.9865 181.294 62.683 182.262 61.0217C182.234 60.9938 182.206 60.9519 182.164 60.91C181.364 59.9468 180.719 58.2156 182.22 55.4375L182.697 55.7028C181.617 57.6991 181.575 59.3185 182.556 60.5331C182.837 60.1422 183.173 59.8072 183.566 59.5279C183.636 59.4861 183.706 59.4302 183.776 59.3883C184.323 58.0342 185.543 56.8196 187.212 56.0657C189.877 54.8512 195.402 56.4706 197.408 59.0533C198.403 60.3377 198.403 61.7337 197.408 62.9762C196.244 64.4141 194.673 65.9358 192.962 67.276C193.2 67.3319 193.439 67.3877 193.663 67.4436C194.42 67.4855 195.15 67.653 195.795 67.9741C198.039 68.5744 199.96 69.3003 200.773 70.6545C201.222 71.3944 201.306 72.3018 201.04 73.321C200.563 75.1638 199.09 76.4202 196.917 76.9088C195.655 79.1285 193.635 81.0411 191.518 81.8788C190.438 82.3116 189.176 82.3395 187.815 82.0044C187.913 83.0096 187.913 84.0566 187.815 85.1037C188.573 85.341 189.316 85.4527 190.017 85.3968C192.008 85.2572 193.916 86.3741 195.094 88.3983C196.173 90.2551 196.356 92.405 195.528 93.6336C195.122 94.2478 194.266 94.9319 192.569 94.7085C190.059 94.3735 187.661 92.5028 186.371 90.0597C186.217 90.3668 186.034 90.66 185.852 90.9531C184.884 92.4609 183.58 93.3125 182.08 93.4381C182.066 96.0348 181.322 98.0172 179.878 99.3295C178.237 100.809 176.12 101.047 174.942 101.047V101.061ZM186.665 89.4454C187.815 91.9164 190.171 93.843 192.639 94.178C193.761 94.3316 194.603 94.0384 195.08 93.3404C195.795 92.2794 195.598 90.3668 194.617 88.6776C193.537 86.8348 191.84 85.8296 190.059 85.9553C189.33 86.0111 188.545 85.8994 187.759 85.6621C187.577 86.9465 187.226 88.2308 186.679 89.4454H186.665ZM175.671 80.0779C174.703 80.0779 174.114 81.1668 173.792 82.1161C172.53 85.7877 175.657 90.6041 179.191 92.2933C179.794 92.5865 180.621 92.8797 181.519 92.9076C181.519 92.8518 181.519 92.782 181.519 92.7261C181.224 86.1367 178.181 80.4269 175.853 80.0918C175.783 80.0918 175.727 80.0918 175.657 80.0918L175.671 80.0779ZM186.062 84.978C185.838 86.0949 185.95 87.1279 186.132 87.8678C186.203 88.161 186.287 88.4542 186.385 88.7334C186.806 87.6864 187.086 86.5835 187.24 85.4806C186.848 85.341 186.455 85.1595 186.062 84.9641V84.978ZM186.203 84.4336C186.567 84.629 186.932 84.7965 187.296 84.9361C187.381 84.0706 187.381 83.205 187.324 82.3814C186.764 83.0654 186.413 83.7635 186.203 84.4475V84.4336ZM180.313 76.4062C180.144 76.8111 180.13 77.3137 180.257 77.8861C180.719 80.0081 183.089 82.6466 185.726 84.1823C186.006 83.3307 186.469 82.5349 187.114 81.8229C185.978 81.446 184.8 80.8038 183.664 79.9522C182.276 78.9052 181.14 77.6906 180.327 76.4202L180.313 76.4062ZM188.166 81.5298C189.33 81.795 190.424 81.7531 191.335 81.3902C193.228 80.6363 195.023 79.0029 196.23 77.0484C195.935 77.0903 195.641 77.1182 195.318 77.1322C194.645 77.1601 193.944 77.1322 193.242 77.0345C192.331 78.3049 190.915 79.6032 189.021 80.8736C188.713 81.083 188.418 81.3064 188.166 81.5298ZM180.649 75.8897C181.519 77.2997 182.739 78.5701 183.987 79.5055C185.039 80.3012 186.146 80.8876 187.198 81.2645C186.904 79.3659 186.231 77.6767 185.291 76.5319C184.548 75.6105 183.3 74.6612 181.617 75.2894C181.21 75.443 180.888 75.6524 180.649 75.9037V75.8897ZM182.683 74.5355C183.791 74.5355 184.842 75.094 185.726 76.1829C186.721 77.3974 187.423 79.1844 187.745 81.1947C188.04 80.9295 188.376 80.6782 188.727 80.4408C190.466 79.2821 191.784 78.1094 192.653 76.9647C190.059 76.49 187.577 75.2056 186.848 73.2651C186.511 72.3716 186.609 71.4502 187.086 70.5987C185.782 70.9895 184.576 71.0594 183.552 70.6964C182.683 70.3753 181.981 69.426 181.589 68.0718C180.327 68.714 179.597 69.8727 179.429 71.5201C179.289 72.8044 179.682 74.1586 180.369 75.415C180.649 75.1498 181 74.9404 181.435 74.7729C181.855 74.6193 182.276 74.5355 182.683 74.5355ZM193.593 76.5458C194.154 76.6017 194.729 76.6296 195.304 76.6017C195.753 76.5738 196.187 76.5319 196.594 76.4481C197.001 75.6943 197.323 74.8985 197.52 74.1028C197.997 72.2041 197.716 70.5149 196.734 69.3562C196.426 68.9932 196.061 68.714 195.655 68.5046C194.995 68.3231 194.294 68.1695 193.593 68.002H193.579C193.004 67.9741 192.415 68.0299 191.84 68.1556C191.49 68.3929 191.139 68.6302 190.788 68.8536C190.872 68.8955 190.957 68.9373 191.027 68.9932C193.228 70.2636 194.42 71.8551 194.477 73.6141C194.505 74.5774 194.21 75.5546 193.593 76.5598V76.5458ZM187.942 70.2776C187.226 71.1431 187.002 72.1064 187.353 73.0557C187.956 74.6891 190.312 76.0293 192.99 76.4621C193.635 75.4848 193.958 74.5216 193.916 73.6141C193.86 72.0506 192.766 70.6126 190.732 69.4399C190.564 69.3422 190.396 69.2445 190.227 69.1607C189.456 69.6075 188.685 69.9984 187.942 70.2776ZM197.071 68.9094C197.071 68.9094 197.113 68.9653 197.141 68.9932C198.249 70.2915 198.571 72.1483 198.053 74.2284C197.884 74.9125 197.618 75.6105 197.295 76.2666C199.006 75.7501 200.156 74.6891 200.549 73.1953C200.787 72.3018 200.717 71.5619 200.338 70.9477C199.778 70.0263 198.585 69.412 197.071 68.9234V68.9094ZM182.094 67.8345C182.43 69.049 183.019 69.8867 183.748 70.1519C184.814 70.5428 186.175 70.3613 187.619 69.8169C188.012 69.3841 188.502 68.9653 189.105 68.6163C186.511 67.4994 183.903 67.1923 182.094 67.8345ZM184.267 66.941C185.922 66.941 187.829 67.4017 189.723 68.2812C190.312 68.002 190.943 67.7786 191.588 67.639L191.742 67.5273C189.947 67.0666 188.194 66.5222 186.792 65.6706C184.8 64.47 183.959 63.1716 183.664 62.0548C183.328 61.8733 183.019 61.6639 182.739 61.4266C181.911 62.9343 181.673 65.0284 181.911 66.7455C181.939 66.941 181.967 67.1225 182.009 67.29C182.697 67.0527 183.468 66.941 184.309 66.941H184.267ZM184.323 62.3759C184.744 63.409 185.67 64.3722 187.058 65.2099C188.516 66.0894 190.382 66.6339 192.303 67.1225C194.126 65.7404 195.809 64.121 197.015 62.6551C197.87 61.6081 197.87 60.5191 197.015 59.4163C195.164 57.043 189.919 55.4794 187.479 56.5962C186.217 57.1686 185.221 58.0481 184.632 59.0393C185.586 58.7322 186.918 58.7182 188.685 59.5838C190.129 60.2958 190.83 60.9938 190.788 61.6499C190.76 61.985 190.536 62.4597 189.582 62.7668C188.292 63.1716 186.118 63.1158 184.337 62.3899L184.323 62.3759ZM184.113 61.6918C185.824 62.5295 188.096 62.6272 189.4 62.2223C189.905 62.0548 190.213 61.8314 190.227 61.5941C190.227 61.4405 190.143 60.8961 188.432 60.0584C186.792 59.2487 185.389 59.151 184.267 59.7653C184.141 60.1143 184.071 60.4633 184.043 60.8123C184.029 61.1194 184.043 61.4126 184.099 61.7058L184.113 61.6918ZM182.991 60.9519C183.145 61.0915 183.328 61.2311 183.51 61.3568C183.496 61.1474 183.496 60.9659 183.51 60.7844C183.51 60.6169 183.538 60.4493 183.566 60.2958C183.356 60.4912 183.173 60.7146 182.991 60.9659V60.9519Z" fill="white" class="hidden dark:block"></path><path d="M178.169 35.2222C176.963 35.2222 176.023 34.8871 175.336 34.231C174.663 33.5748 174.312 32.6255 174.312 31.4109C174.312 30.1964 174.621 29.1912 175.252 28.5072C175.883 27.8231 176.753 27.488 177.86 27.488C178.968 27.488 179.74 27.7952 180.329 28.3955C180.918 28.9958 181.212 29.8194 181.212 30.8805V31.8716H176.374C176.402 32.444 176.57 32.9047 176.893 33.2258C177.215 33.5469 177.664 33.7144 178.253 33.7144C178.702 33.7144 179.137 33.6726 179.529 33.5748C179.936 33.4771 180.357 33.3375 180.791 33.1281V34.7056C180.441 34.8871 180.048 35.0128 179.641 35.0965C179.235 35.1803 178.744 35.2222 178.155 35.2222H178.169ZM177.875 28.9399C177.44 28.9399 177.103 29.0795 176.851 29.3448C176.598 29.624 176.458 30.0009 176.43 30.5035H179.305C179.305 30.0009 179.165 29.61 178.912 29.3448C178.66 29.0656 178.309 28.9399 177.875 28.9399Z" fill="black"></path><path d="M188.451 27.4883C188.731 27.4883 188.956 27.5022 189.138 27.5441L188.984 29.4567C188.815 29.4148 188.619 29.3869 188.381 29.3869C187.722 29.3869 187.217 29.5544 186.852 29.8895C186.488 30.2245 186.305 30.6852 186.305 31.2855V35.0828H184.258V27.6279H185.8L186.109 28.8843H186.207C186.446 28.4655 186.754 28.1305 187.147 27.8792C187.539 27.6279 187.974 27.5022 188.437 27.5022L188.451 27.4883Z" fill="black"></path><path d="M196.052 27.4883C196.333 27.4883 196.557 27.5022 196.74 27.5441L196.585 29.4567C196.417 29.4148 196.221 29.3869 195.982 29.3869C195.323 29.3869 194.818 29.5544 194.454 29.8895C194.089 30.2245 193.907 30.6852 193.907 31.2855V35.0828H191.859V27.6279H193.402L193.711 28.8843H193.809C194.047 28.4655 194.356 28.1305 194.748 27.8792C195.141 27.6279 195.576 27.5022 196.038 27.5022L196.052 27.4883Z" fill="black"></path><path d="M206.286 31.3412C206.286 32.5558 205.964 33.5051 205.318 34.1891C204.673 34.8732 203.776 35.2222 202.626 35.2222C201.911 35.2222 201.266 35.0687 200.719 34.7476C200.172 34.4404 199.751 33.9797 199.457 33.3934C199.162 32.807 199.008 32.123 199.008 31.3412C199.008 30.1266 199.33 29.1773 199.961 28.4932C200.607 27.8231 201.504 27.4741 202.654 27.4741C203.369 27.4741 204.014 27.6277 204.561 27.9348C205.108 28.242 205.529 28.6887 205.823 29.275C206.118 29.8614 206.272 30.5454 206.272 31.3272L206.286 31.3412ZM201.097 31.3412C201.097 32.0811 201.224 32.6395 201.462 33.0165C201.7 33.3934 202.107 33.5888 202.654 33.5888C203.201 33.5888 203.594 33.4074 203.832 33.0304C204.07 32.6535 204.197 32.0951 204.197 31.3552C204.197 30.6152 204.07 30.0568 203.832 29.6938C203.594 29.3309 203.201 29.1354 202.64 29.1354C202.079 29.1354 201.7 29.3169 201.462 29.6799C201.224 30.0429 201.097 30.6013 201.097 31.3412Z" fill="black"></path><path d="M213.537 27.488C213.817 27.488 214.042 27.502 214.224 27.5439L214.07 29.4565C213.901 29.4146 213.705 29.3867 213.467 29.3867C212.808 29.3867 212.303 29.5542 211.938 29.8892C211.574 30.2243 211.391 30.685 211.391 31.2853V35.0826H209.344V27.6276H210.886L211.195 28.8841H211.293C211.531 28.4653 211.84 28.1302 212.233 27.8789C212.625 27.6276 213.06 27.502 213.523 27.502L213.537 27.488Z" fill="black"></path></g><defs><clipPath id="clip0_1439_11395"><rect width="250" height="169" fill="white"></rect></clipPath></defs></svg>