<svg xmlns="http://www.w3.org/2000/svg" xmlns:xlink="http://www.w3.org/1999/xlink" width="44" height="44" viewBox="0 0 44 44">
    <defs>
        <circle id="prefix__a" cx="22" cy="22" r="22"/>
    </defs>
    <g fill="none" fill-rule="evenodd">
        <mask id="prefix__b" fill="#fff">
            <use xlink:href="#prefix__a"/>
        </mask>
        <use fill="#FF5058" xlink:href="#prefix__a"/>
        <path fill="#FFF" d="M27.435 21.496l-7.283 8.09c-.078.089-.189.135-.3.135-.07 0-.139-.017-.202-.054-.165-.095-.242-.28-.183-.461l1.65-5.122h-2.883c-.127 0-.246-.072-.322-.173-.077-.1-.102-.237-.069-.36l2.226-8.064c.048-.176.208-.271.39-.271h5.26c.135 0 .262.038.337.152.075.113.087.304.034.428l-2.186 5.147h3.23c.16 0 .305.033.37.179s.038.255-.07.374m5.872-7.063l-10.28-5.991c-.443-.256-1.12-.256-1.562 0l-10.476 5.991c-.443.256-.905.883-.905 1.395V27.81c0 .511.486 1.139.929 1.394l10.44 5.992c.442.256 1.197.256 1.64 0l10.199-5.992c.443-.255.626-.883.626-1.394V15.828c0-.512-.168-1.14-.61-1.395" mask="url(#prefix__b)"/>
    </g>
</svg>
