<svg xmlns="http://www.w3.org/2000/svg" width="20" height="20" viewBox="0 0 20 20">
    <path fill="#1E1D29" fill-rule="evenodd" d="M2.152 8.608A6.463 6.463 0 0 1 8.61 2.152a6.463 6.463 0 0 1 6.456 6.456 6.463 6.463 0 0 1-6.456 6.456 6.463 6.463 0 0 1-6.457-6.456m13.249 5.27a8.55 8.55 0 0 0 1.816-5.27C17.217 3.862 13.355 0 8.61 0 3.862 0 0 3.862 0 8.608c0 4.747 3.862 8.608 8.609 8.608a8.56 8.56 0 0 0 5.27-1.816l4.284 4.284a1.073 1.073 0 0 0 1.521 0 1.075 1.075 0 0 0 0-1.522l-4.283-4.284z"/>
</svg>
