<svg xmlns="http://www.w3.org/2000/svg" width="312" height="52" viewBox="0 0 312 52">
    <g fill="#FF5058" fill-rule="evenodd">
        <path d="M156.494 43.29l13.086 7.453c2.486 1.417 5.53-.678 4.875-3.328l-3.447-13.93a1 1 0 0 1 .338-1.015l11.519-9.399c2.192-1.787 1.014-5.177-1.865-5.392l-15.216-1.217a1 1 0 0 1-.832-.586L159.01 2.672c-1.112-2.496-4.908-2.496-6.02 0l-5.942 13.174a1 1 0 0 1-.832.586L131 17.648c-2.88.216-4.057 3.605-1.865 5.393l11.519 9.398a1 1 0 0 1 .338 1.015l-3.447 13.93c-.655 2.65 2.389 4.746 4.875 3.328l13.086-7.423a1 1 0 0 1 .988 0zM220.494 43.29l13.086 7.453c2.486 1.417 5.53-.678 4.875-3.328l-3.447-13.93a1 1 0 0 1 .338-1.015l11.519-9.399c2.192-1.787 1.014-5.177-1.865-5.392l-15.216-1.217a1 1 0 0 1-.832-.586L223.01 2.672c-1.112-2.496-4.908-2.496-6.02 0l-5.942 13.174a1 1 0 0 1-.832.586L195 17.648c-2.88.216-4.057 3.605-1.865 5.393l11.519 9.398a1 1 0 0 1 .338 1.015l-3.447 13.93c-.655 2.65 2.389 4.746 4.875 3.328l13.086-7.423a1 1 0 0 1 .988 0zM284.494 43.29l13.086 7.453c2.486 1.417 5.53-.678 4.875-3.328l-3.447-13.93a1 1 0 0 1 .338-1.015l11.519-9.399c2.192-1.787 1.014-5.177-1.865-5.392l-15.216-1.217a1 1 0 0 1-.832-.586L287.01 2.672c-1.112-2.496-4.908-2.496-6.02 0l-5.942 13.174a1 1 0 0 1-.832.586L259 17.648c-2.88.216-4.057 3.605-1.865 5.393l11.519 9.398a1 1 0 0 1 .338 1.015l-3.447 13.93c-.655 2.65 2.389 4.746 4.875 3.328l13.086-7.423a1 1 0 0 1 .988 0zM92.494 43.29l13.086 7.453c2.486 1.417 5.53-.678 4.875-3.328l-3.447-13.93a1 1 0 0 1 .338-1.015l11.519-9.399c2.192-1.787 1.014-5.177-1.865-5.392l-15.216-1.217a1 1 0 0 1-.832-.586L95.01 2.672c-1.112-2.496-4.908-2.496-6.02 0l-5.942 13.174a1 1 0 0 1-.832.586L67 17.648c-2.88.216-4.057 3.605-1.865 5.393l11.519 9.398a1 1 0 0 1 .338 1.015l-3.447 13.93c-.655 2.65 2.389 4.746 4.875 3.328l13.086-7.423a1 1 0 0 1 .988 0zM28.494 43.29l13.086 7.453c2.486 1.417 5.53-.678 4.875-3.328l-3.447-13.93a1 1 0 0 1 .338-1.015l11.519-9.399c2.192-1.787 1.014-5.177-1.865-5.392l-15.216-1.217a1 1 0 0 1-.832-.586L31.01 2.672c-1.112-2.496-4.908-2.496-6.02 0l-5.942 13.174a1 1 0 0 1-.832.586L3 17.648c-2.88.216-4.057 3.605-1.865 5.393l11.519 9.398a1 1 0 0 1 .338 1.015l-3.447 13.93c-.655 2.65 2.389 4.746 4.875 3.328l13.086-7.423a1 1 0 0 1 .988 0z"/>
    </g>
</svg>
