<svg xmlns="http://www.w3.org/2000/svg" width="166" height="166" viewBox="0 0 166 166">
    <g fill="none" fill-rule="evenodd">
        <circle cx="83" cy="83" r="83" fill="#FAFAFD"/>
        <path fill="#DCDBE4" d="M53.824 68h58.352c1.008 0 1.824.81 1.824 1.808v43.384c0 .999-.816 1.808-1.824 1.808H53.824A1.816 1.816 0 0 1 52 113.192V69.808c0-.999.817-1.808 1.824-1.808"/>
        <path fill="#C3C2CC" d="M60.833 82h18.334c1.012 0 1.833.82 1.833 1.833v18.333c0 1.013-.82 1.834-1.833 1.834H60.833A1.833 1.833 0 0 1 59 102.166V83.833c0-1.012.82-1.833 1.833-1.833"/>
        <path fill="#FF5058" d="M86.833 83h18.334c1.012 0 1.833.796 1.833 1.778v28.444c0 .982-.82 1.778-1.833 1.778H86.833c-1.012 0-1.833-.796-1.833-1.778V84.778c0-.982.82-1.778 1.833-1.778"/>
        <path fill="#1E1D29" d="M115.87 111H50.13c-5.042 0-9.13 4.104-9.13 9.167A1.83 1.83 0 0 0 42.826 122h80.348a1.83 1.83 0 0 0 1.826-1.833c0-5.063-4.088-9.167-9.13-9.167M100.833 34H64.167C59.104 34 55 38.03 55 43v7.2c0 .994.82 1.8 1.833 1.8h51.334c1.012 0 1.833-.806 1.833-1.8V43c0-4.97-4.104-9-9.167-9"/>
        <path fill="#FF5058" d="M66.585 49.664A1.841 1.841 0 0 0 65.166 49h-7.333c-.644 0-1.242.334-1.573.881l-11 18.125a1.8 1.8 0 0 0-.26.93C45 73.943 49.104 78 54.166 78c4.933.043 8.992-3.825 9.13-8.7l3.667-18.125a1.798 1.798 0 0 0-.378-1.511"/>
        <path fill="#FF919E" d="M75.2 49H64.4c-.855 0-1.593.606-1.764 1.45L59 68.937C59 73.943 63.03 78 68 78s9-4.057 9-9.063V50.812A1.806 1.806 0 0 0 75.2 49"/>
        <path fill="#FF5058" d="M120.74 68.006l-11-18.125a1.84 1.84 0 0 0-1.573-.881h-7.333A1.823 1.823 0 0 0 99 50.812c0 .122.012.243.037.363l3.63 17.763c0 5.005 4.104 9.062 9.167 9.062 5.062 0 9.166-4.057 9.166-9.062 0-.328-.09-.65-.26-.932"/>
        <path fill="#FF919E" d="M103.371 50.482c-.17-.863-.908-1.482-1.764-1.482h-10.8c-.993 0-1.8.829-1.8 1.852V69.37c-.199 5.11 3.667 9.418 8.634 9.622 4.966.205 9.153-3.772 9.352-8.882.014-.37.007-.74-.022-1.11l-3.6-18.518z"/>
        <path fill="#FF5058" d="M90.2 49H75.8c-.994 0-1.8.811-1.8 1.812v18.125C74 73.943 78.03 78 83 78s9-4.057 9-9.063V50.812A1.806 1.806 0 0 0 90.2 49M37.382 87.708c-2.032-1.594-4.034-2.323-5.762-2.835-.418-.117-.841-.162-1.259-.246-.09-.434-.149-.869-.265-1.303-.498-1.691-1.226-3.7-2.821-5.738-.612-.781-1.935-.781-2.547 0-1.595 2.038-2.322 4.047-2.83 5.77-.114.419-.169.846-.256 1.27-.43.092-.867.15-1.294.267-1.696.505-3.701 1.234-5.724 2.812-.391.308-.624.781-.624 1.28s.233.969.628 1.277c2.022 1.574 4.024 2.307 5.752 2.822.418.113.848.168 1.272.26.09.433.148.87.265 1.299.505 1.697 1.233 3.703 2.808 5.732a1.621 1.621 0 0 0 2.553.003c1.57-2.019 2.304-4.031 2.821-5.768.113-.415.168-.84.256-1.26.433-.091.87-.146 1.297-.266 1.696-.502 3.701-1.231 5.73-2.826A1.62 1.62 0 0 0 38 88.985a1.62 1.62 0 0 0-.618-1.277M144.485 45.924c-1.693-1.329-3.362-1.936-4.802-2.363-.348-.097-.7-.135-1.049-.205-.075-.362-.124-.724-.22-1.086-.416-1.41-1.023-3.083-2.352-4.782-.51-.65-1.612-.65-2.122 0-1.329 1.699-1.935 3.373-2.359 4.81-.094.348-.14.704-.213 1.058-.358.075-.722.124-1.078.221-1.413.421-3.085 1.029-4.77 2.344a1.35 1.35 0 0 0 .003 2.13c1.685 1.313 3.354 1.923 4.794 2.352.348.095.706.14 1.06.216.075.362.123.727.22 1.083.421 1.415 1.028 3.087 2.34 4.777a1.351 1.351 0 0 0 2.127.003c1.309-1.683 1.92-3.36 2.352-4.807.094-.346.14-.7.213-1.05.361-.076.725-.122 1.081-.222 1.413-.418 3.085-1.026 4.775-2.354a1.35 1.35 0 0 0 0-2.125"/>
    </g>
</svg>
