<svg xmlns="http://www.w3.org/2000/svg" width="140" height="22" viewBox="0 0 140 22">
    <g fill="#72707F" fill-rule="evenodd">
        <text font-family="Roboto-Regular, Roboto" font-size="16" letter-spacing="-.5" transform="translate(-4 -2)">
            <tspan x="28" y="24">Download for iOS</tspan>
        </text>
        <path fill-rule="nonzero" d="M12.371 3.402c.868-.901 1.455-2.154 1.295-3.402-1.25.043-2.767.712-3.664 1.614-.805.798-1.51 2.074-1.321 3.298 1.395.092 2.82-.61 3.69-1.51zm2.663 8.236c-.026-2.8 2.284-4.143 2.386-4.208-1.299-1.901-3.321-2.161-4.042-2.19-1.722-.176-3.358 1.012-4.232 1.012-.871 0-2.218-.99-3.647-.963-1.878.03-3.608 1.091-4.573 2.773-1.95 3.384-.5 8.396 1.401 11.14.93 1.344 2.036 2.851 3.489 2.797 1.402-.055 1.931-.906 3.623-.906 1.693 0 2.167.906 3.648.878 1.507-.027 2.46-1.37 3.382-2.717 1.066-1.558 1.506-3.067 1.531-3.143-.032-.018-2.935-1.126-2.966-4.473z"/>
    </g>
</svg>
