<svg xmlns="http://www.w3.org/2000/svg" width="166" height="166" viewBox="0 0 166 166">
    <g fill="none" fill-rule="evenodd">
        <circle cx="83" cy="83" r="83" fill="#FFF"/>
        <path fill="#FED330" d="M64 114v18h61v-.012L124.27 114z"/>
        <path fill="#FF919E" d="M64.997 55l-.994 23.901L64 120.115h29.398V132H125v-.012l-.494-11.873L121.801 55z"/>
        <path fill="#FF5058" d="M41 132h52V76H41z"/>
        <path fill="#EAE9F1" d="M92.895 34.059c-8.49 0-15.398 6.93-15.398 15.45v16.047h5.723V49.509c0-5.353 4.34-9.708 9.675-9.708 5.336 0 9.676 4.355 9.676 9.708v16.047h5.723V49.509c0-8.52-6.908-15.45-15.399-15.45M74.657 85.284c0 4.286-3.476 7.774-7.749 7.774-4.272 0-7.748-3.488-7.748-7.774V75.77h-5.723v9.513c0 7.452 6.044 13.515 13.471 13.515 7.429 0 13.471-6.063 13.471-13.515V75.77h-5.722v9.513z"/>
        <path fill="#FF5058" d="M19.515 54.924c1.693-1.329 3.362-1.936 4.802-2.363.348-.097.7-.135 1.049-.205.075-.362.124-.724.22-1.086.416-1.41 1.023-3.083 2.352-4.782.51-.65 1.612-.65 2.122 0 1.329 1.699 1.935 3.373 2.359 4.81.094.348.14.704.213 1.058.358.075.722.124 1.078.221 1.413.421 3.085 1.029 4.77 2.344a1.35 1.35 0 0 1-.003 2.13c-1.685 1.313-3.354 1.923-4.794 2.352-.348.095-.706.14-1.06.216-.075.362-.123.727-.22 1.083-.421 1.415-1.028 3.087-2.34 4.777a1.351 1.351 0 0 1-2.127.003c-1.309-1.683-1.92-3.36-2.352-4.807-.094-.346-.14-.7-.213-1.05-.361-.076-.725-.122-1.081-.222-1.413-.418-3.085-1.026-4.775-2.354a1.35 1.35 0 0 1 0-2.125"/>
        <circle cx="48.5" cy="32.5" r="4.5" fill="#FF919E" transform="matrix(-1 0 0 1 97 0)"/>
    </g>
</svg>
