<svg xmlns="http://www.w3.org/2000/svg" xmlns:xlink="http://www.w3.org/1999/xlink" width="124" height="72" viewBox="0 0 124 72">
    <defs>
        <path id="1pyzaare7a" d="M0.715 0.389L20.715 0.389 20.715 30.102 0.715 30.102z"/>
    </defs>
    <g fill="none" fill-rule="evenodd">
        <path d="M0 0H124V72H0z"/>
        <g>
            <path fill="#FFF" d="M34.691 1S27.768 8.307 5.86 11.233c-.158.022-.3.118-.376.258-1.708 3.174-19.218 42.081 29.056 59.435.111.04.239.04.351 0 48.274-17.354 30.764-56.26 29.055-59.435-.075-.14-.217-.236-.376-.258C41.663 8.307 34.74 1 34.74 1" transform="translate(27)"/>
            <path fill="#EAE9F1" d="M63.546 11.212s-12.795-2.049-22.008-5.87l-.216 3.346c4.004 3.44 9.91 7.323 17.958 9.752 0 0 11.052 35.264-24.777 52.442 0 0 48.871-16.805 29.043-59.67" transform="translate(27)"/>
            <path fill="#3F3E4B" fill-rule="nonzero" d="M34.607.002L34.7 0l.128.002c.197.017.388.091.548.223l.092.086.127.123c.06.055.136.124.231.206l.1.086c.433.366.98.779 1.648 1.226 1.938 1.298 4.455 2.602 7.616 3.825 5.014 1.94 11.15 3.48 18.52 4.464.473.065.893.352 1.119.774.888 1.65 2.135 4.838 3.057 8.41 1.392 5.389 1.927 11.001 1.272 16.581-1.82 15.5-12.328 28.095-33.928 35.86-.33.118-.697.118-1.026 0C12.606 64.1 2.098 51.505.278 36.005c-.655-5.58-.12-11.192 1.271-16.581.923-3.572 2.169-6.76 3.059-8.413.228-.42.645-.705 1.122-.772 7.366-.984 13.502-2.523 18.515-4.463 3.161-1.223 5.68-2.527 7.616-3.825.573-.383 1.057-.741 1.456-1.066l.192-.16c.249-.21.399-.353.458-.415.176-.185.405-.289.64-.309zm.11 2.326l-.114.095c-.416.34-.956.74-1.629 1.191-2.06 1.38-4.71 2.753-8.007 4.029-4.973 1.924-10.99 3.458-18.137 4.465l-.58.079-.085.167c-.763 1.536-1.775 4.185-2.572 7.163l-.107.408C2.152 25.089 1.64 30.459 2.264 35.773 3.976 50.352 13.781 62.23 34.258 69.757l.46.167.46-.167c20.27-7.451 30.083-19.166 31.939-33.543l.054-.441c.624-5.314.113-10.684-1.221-15.848-.812-3.143-1.883-5.966-2.681-7.573l-.085-.165-.574-.078c-6.878-.97-12.704-2.425-17.563-4.246l-.578-.22c-3.298-1.276-5.947-2.649-8.007-4.029-.673-.45-1.213-.852-1.63-1.19l-.115-.096z" transform="translate(27)"/>
            <path fill="#FF5058" d="M30.473 46.121l-8.839-8.839c-.195-.194-.195-.511 0-.706l2.83-2.828c.195-.195.511-.195.706 0l5.657 5.657L44.261 25.97c.195-.197.512-.197.707 0l2.828 2.828c.196.195.196.51 0 .707L31.18 46.12c-.195.195-.512.195-.707 0" transform="translate(27)"/>
        </g>
        <g transform="translate(103 1)">
            <mask id="yggkbwyqwb" fill="#fff">
                <use xlink:href="#1pyzaare7a"/>
            </mask>
            <path fill="#EAE9F1" d="M5.502 29.831c-.163.178-.39.271-.62.271-.142 0-.285-.035-.415-.108-.341-.193-.499-.607-.378-.975l3.4-10.42h-5.94c-.26 0-.505-.107-.663-.31-.157-.204-.21-.46-.141-.708L5.329 1.088c.099-.357.428-.699.803-.699h10.833c.281 0 .542.238.696.468.154.23.181.564.07.817l-4.502 10.377h6.653c.329 0 .628.198.761.494.134.296.078.65-.141.89l-15 16.396z" mask="url(#yggkbwyqwb)"/>
        </g>
    </g>
</svg>
