<svg xmlns="http://www.w3.org/2000/svg" width="102" height="72" viewBox="0 0 102 72">
    <g fill="none" fill-rule="evenodd">
        <path fill="#FFF" stroke="#3F3E4B" stroke-width="2" d="M51.388 3.495l37.789 65.27a1 1 0 0 1-.866 1.502H12.734a1 1 0 0 1-.865-1.501L49.657 3.495a1 1 0 0 1 1.731 0z"/>
        <path fill="#EAE9F1" d="M54.617 8.451a1 1 0 0 1 .358.359l35.057 59.952a1 1 0 0 1-.863 1.505H19.055a1 1 0 0 1-1-1l.003-.052 57.834-4.113a1 1 0 0 0 .235-.045l.112-.043a1 1 0 0 0 .49-1.327L52.272 10.48l.978-1.67a1 1 0 0 1 1.368-.359z" style="mix-blend-mode:multiply"/>
        <path fill="#FF5058" d="M52.245 53.716a.5.5 0 0 1 .498.46l.299 3.756a.5.5 0 0 1-.459.538l-.04.001h-3.478a.5.5 0 0 1-.498-.54l.299-3.755a.5.5 0 0 1 .498-.46h2.88zM54.056 30a.5.5 0 0 1 .498.55L52.752 48.57a.5.5 0 0 1-.498.45h-2.9a.5.5 0 0 1-.497-.45L47.055 30.55a.5.5 0 0 1 .448-.548l.025-.001L54.056 30z"/>
        <path fill="#EAE9F1" d="M79.786 29.443a.84.84 0 0 1-1.035.162.832.832 0 0 1-.378-.975l3.4-10.42h-5.94a.826.826 0 0 1-.662-.31.795.795 0 0 1-.141-.707L79.613.699c.1-.356.429-.699.804-.699H91.25c.28 0 .542.238.696.468.154.23.18.564.07.817l-4.502 10.377h6.653a.84.84 0 0 1 .76.494.822.822 0 0 1-.14.89l-15 16.397z"/>
    </g>
</svg>
