<svg xmlns="http://www.w3.org/2000/svg" width="current" height="current" viewBox="0 0 20 20">
    <path fill="#1E1D29" fill-rule="evenodd" d="M11.414 10l6.293 6.292c.188.187.293.442.293.707 0 .265-.105.52-.293.707-.187.188-.442.294-.707.294-.266 0-.52-.106-.707-.294L10 11.413l-6.293 6.293c-.39.39-1.024.39-1.414 0-.39-.39-.39-1.023 0-1.414L8.586 10 2.293 3.707c-.253-.253-.351-.62-.259-.966.093-.345.362-.614.707-.707.345-.092.713.006.966.259L10 8.585l6.293-6.292c.39-.39 1.023-.39 1.414 0 .39.39.39 1.023 0 1.414l-6.293 6.292z"/>
</svg>
