<svg xmlns="http://www.w3.org/2000/svg" width="20" height="20" viewBox="0 0 20 20">
    <defs>
        <filter id="eg5e0lnxna">
            <feColorMatrix in="SourceGraphic" values="0 0 0 0 0.968627 0 0 0 0 0.000000 0 0 0 0 0.000000 0 0 0 1.000000 0"/>
        </filter>
    </defs>
    <g fill="none" fill-rule="evenodd" filter="url(#eg5e0lnxna)">
        <path fill="#DCDBE4" d="M20 10c0 5.514-4.486 10-10 10S0 15.514 0 10 4.486 0 10 0s10 4.486 10 10zm-6.741-2.966c.345.093.614.362.707.707.092.345-.006.713-.259.966l-4 4c-.187.188-.442.294-.707.294-.265 0-.52-.106-.707-.294l-2-2c-.39-.39-.39-1.024 0-1.414.39-.39 1.024-.39 1.414 0L9 10.586l3.293-3.293c.253-.253.62-.351.966-.259z"/>
    </g>
</svg>
