<?xml version="1.0" encoding="UTF-8"?>
<svg width="14px" height="14px" viewBox="0 0 14 14" version="1.1" xmlns="http://www.w3.org/2000/svg" xmlns:xlink="http://www.w3.org/1999/xlink">
    <title>E311C035-759D-4EB5-BD86-939BB9992164</title>
    <g id="회원가입-가이드" stroke="none" stroke-width="1" fill="none" fill-rule="evenodd">
        <g id="회원가입-약관동의" transform="translate(-311.000000, -599.000000)" fill="#B2B2B2">
            <g id="Group-10" transform="translate(0.000000, 383.000000)">
                <g id="약관s" transform="translate(0.000000, 159.000000)">
                    <g id="Group-10" transform="translate(52.000000, 54.000000)">
                        <g id="Icon-(아이콘)/-ic_chevron-down" transform="translate(258.999772, 3.000000)">
                            <path d="M12.7852383,3.68403 L6.91363834,9.53883 L1.07633834,3.68473 C0.83133834,3.43903 0.43233834,3.43763 0.18523834,3.68403 C-0.0611616599,3.92973 -0.0618616599,4.32873 0.18383834,4.57513 L6.46633834,10.87513 C6.58463834,10.99343 6.74423834,11.05993 6.91153834,11.05993 L6.91223834,11.05993 C7.07953834,11.05993 7.23913834,10.99413 7.35743834,10.87583 L13.6749383,4.57583 C13.9213383,4.33013 13.9220383,3.93183 13.6763383,3.68473 C13.4313383,3.43903 13.0323383,3.43763 12.7852383,3.68403" id="Fill-1"></path>
                        </g>
                    </g>
                </g>
            </g>
        </g>
    </g>
</svg>