<svg xmlns="http://www.w3.org/2000/svg" width="20" height="20" viewBox="0 0 20 20">
    <path fill="#FFF" fill-rule="evenodd" d="M18 7.3c0-1.68-.52-4.5-4-4.5-1.65 0-2.255.802-3.056 2.121l-.067.112c-.351.576-1.403.576-1.754 0l-.067-.112C8.255 3.601 7.65 2.8 6 2.8c-3.48 0-4 2.82-4 4.5 0 5.545 6.291 8.963 7.999 9.789C11.705 16.26 18 12.829 18 7.299zm2 0c0 7.52-9.187 11.452-9.578 11.615-.267.113-.577.113-.844 0C9.187 18.752 0 14.819 0 7.3 0 3.414 2.299 1 6 1c2.065 0 3.232.898 4 1.855C10.768 1.898 11.936 1 14 1c3.701 0 6 2.414 6 6.3z"/>
</svg>
