<svg xmlns="http://www.w3.org/2000/svg" width="20" height="20" viewBox="0 0 20 20">
    <path fill="#3C1E1E" fill-rule="evenodd" d="M10 1C4.477 1 0 4.634 0 9.117c0 2.898 1.872 5.441 4.687 6.877-.139.495-.839 2.982-.99 3.604l-.027.127s-.02.175.09.241c.11.067.238.015.238.015l.048-.015c.314-.127 1.613-1.028 2.696-1.796l1.482-1.064c.576.084 1.17.128 1.776.128 5.523 0 10-3.634 10-8.117C20 4.634 15.523 1 10 1zM5.948 6.692l.102.01c.264.049.464.286.464.571 0 .321-.254.582-.566.582h-.9v3.528l-.01.102c-.048.264-.284.466-.567.466-.318 0-.577-.255-.577-.568V7.855h-.9l-.102-.01c-.263-.049-.464-.287-.464-.572 0-.32.254-.581.566-.581h2.954zm1.936 0c.377.009.672.302.77.587l1.38 3.737.04.145c.107.453-.033.631-.177.7-.077.036-.158.06-.241.073l-.126.009-.1-.006c-.19-.024-.333-.118-.38-.257l-.286-.77H7.005l-.286.77-.031.066c-.078.123-.242.197-.449.197-.126 0-.251-.028-.366-.082-.16-.076-.312-.283-.137-.844l1.38-3.739.04-.095c.124-.25.394-.483.728-.491zm6.283 0c.318 0 .577.266.577.594v1.276l1.61-1.657.067-.056c.073-.05.16-.076.252-.076.144 0 .289.064.397.175.101.104.162.238.17.377.008.14-.037.268-.127.362L15.798 9.04l1.42 1.937.05.079c.056.11.078.236.06.36-.02.157-.1.298-.223.392-.1.078-.222.12-.347.12-.181.001-.352-.086-.461-.236l-1.353-1.845-.2.206v1.296l-.01.106c-.049.277-.284.487-.567.488-.318 0-.577-.267-.577-.594V7.286l.01-.107c.048-.277.284-.487.567-.487zm-3.17 0c.325 0 .59.266.59.594v3.489h1.226l.099.009c.257.046.453.269.453.535 0 .3-.248.545-.553.545h-1.85l-.1-.009c-.257-.046-.453-.269-.453-.536V7.286l.01-.107c.05-.277.29-.487.579-.487zM7.886 8.173L7.308 9.86h1.153l-.576-1.686z"/>
</svg>
