<svg xmlns="http://www.w3.org/2000/svg" width="132" height="60" viewBox="0 0 132 60" fill="none">
    <g clip-path="url(#clip0_1928_34355)">
        <rect width="132" height="60" fill="white" />
        <path
            d="M132 54.4816V5.52652C132 2.47431 129.464 0 126.335 0H5.66487C2.53625 0 0 2.47431 0 5.52652V54.4816C-1.67758e-06 55.9465 0.597101 57.3514 1.65971 58.3865C2.72233 59.4216 4.16323 60.002 5.66487 59.9998H126.301C127.809 60.0108 129.258 59.4343 130.328 58.3982C131.398 57.3622 132 55.9523 132 54.4816Z"
            fill="#D80C18" />
        <path fill-rule="evenodd" clip-rule="evenodd"
            d="M32.933 27.8854H43.6387V27.8887C43.84 27.8887 43.9407 28.146 43.7944 28.2919L24.1507 48.0847C23.9997 48.2355 23.7496 48.1109 23.7701 47.893L25.2658 31.7513L14.8274 31.8676C14.6245 31.8692 14.5223 31.6103 14.6701 31.4628L34.2902 11.9158C34.4428 11.765 34.6929 11.8945 34.6693 12.1124L32.933 27.8854ZM76.1939 13.9091H81.1113V46.1196H76.1939V13.9091ZM74.2656 14.0882V45.5151H69.4227V30.5193H66.5004V25.7846H69.4227V14.0882H74.2656ZM51.3502 38.736V43.1902L68.1802 42.4726V38.0926L65.8623 38.1834L65.9285 19.154H67.9236V14.6998H51.6399V19.154H53.6433L53.7012 38.6453L51.3502 38.736ZM58.453 19.1545H61.1187L61.0525 38.3654L58.511 38.4643L58.453 19.1545ZM112.901 13.9091H107.843V46.1196H112.901V13.9091ZM88.0654 41.4993C86.3987 39.9926 85.4826 37.6967 85.317 34.6118C85.3058 34.334 85.2951 34.0586 85.2846 33.7862C85.2564 33.0556 85.229 32.346 85.1928 31.667C85.1431 30.735 85.1431 29.8029 85.1431 28.8873C85.1431 27.9717 85.1514 27.0396 85.1928 26.1075C85.2342 25.1754 85.2756 24.1939 85.317 23.1711C85.4826 20.0861 86.4098 17.7848 88.0654 16.2835C89.8671 14.7212 92.2028 13.9091 94.5889 14.0152C95.8283 14.0027 97.0615 14.1922 98.2396 14.5761C99.3111 14.9288 100.292 15.5117 101.112 16.2835C101.952 17.0922 102.606 18.0711 103.033 19.154C103.536 20.4363 103.816 21.7948 103.861 23.1711C103.868 23.3218 103.876 23.4719 103.883 23.6214C103.926 24.4867 103.968 25.3305 103.968 26.1323V28.9285C103.968 29.2318 103.971 29.5368 103.974 29.8431V29.8442V29.8453C103.979 30.463 103.985 31.0857 103.968 31.7083C103.943 32.6404 103.91 33.6054 103.861 34.6118C103.82 35.9937 103.54 37.3582 103.033 38.6453C102.601 39.7204 101.946 40.6929 101.112 41.4993C100.292 42.2711 99.3111 42.854 98.2396 43.2067C97.061 43.5879 95.8279 43.7745 94.5889 43.7594C92.2039 43.8678 89.8684 43.0586 88.0654 41.4993ZM90.8058 21.6202C90.5685 22.5632 90.427 23.5276 90.3836 24.4989C90.2843 25.9094 90.2346 27.3694 90.2346 28.8871C90.2346 30.4048 90.2843 31.8731 90.3836 33.2836C90.427 34.2521 90.5684 35.2139 90.8058 36.1541C90.9647 36.8157 91.2454 37.4421 91.6337 38.0017C91.9579 38.4441 92.3953 38.7916 92.9003 39.0081C93.4253 39.2218 93.9889 39.3256 94.556 39.3133C95.1228 39.3236 95.686 39.2197 96.2116 39.0081C96.7166 38.7916 97.154 38.4441 97.4782 38.0017C97.8666 37.4422 98.1473 36.8157 98.3061 36.1541C98.5467 35.2142 98.6909 34.2525 98.7366 33.2836C98.8276 31.8731 98.8773 30.4213 98.8773 28.9119C98.8773 27.4024 98.8276 25.9259 98.7366 24.4989C98.6908 23.5273 98.5466 22.5628 98.3061 21.6202C98.1473 20.9611 97.8665 20.3373 97.4782 19.7807C97.1565 19.3361 96.7183 18.988 96.2116 18.7744C95.686 18.5627 95.1228 18.4589 94.556 18.4692C93.9889 18.4568 93.4253 18.5607 92.9003 18.7744C92.3936 18.988 91.9554 19.3361 91.6337 19.7807C91.2454 20.3373 90.9646 20.9611 90.8058 21.6202Z"
            fill="white" />
    </g>
    <defs>
        <clipPath id="clip0_1928_34355">
            <rect width="132" height="60" fill="white" />
        </clipPath>
    </defs>
</svg>