<svg xmlns="http://www.w3.org/2000/svg" width="13" height="13" viewBox="0 0 13 13">
    <path fill="#FF5058" fill-rule="evenodd" d="M5.911.134c.325-.179.72-.179 1.045 0l5.322 2.928c.393.216.611.65.55 1.095-.259 1.913-1.369 6.542-5.947 8.736-.284.136-.615.142-.904.019C1.114 10.833.183 6.056.005 4.134c-.04-.433.177-.848.558-1.058zm2.268 3.38H5.663c-.087 0-.164.046-.187.13L4.411 7.503c-.016.058-.004.124.033.172.037.048.094.082.154.082h1.38l-.79 2.451c-.028.087.009.175.088.22.03.018.063.026.096.026.054 0 .107-.022.144-.064L9 6.52c.052-.057.064-.11.033-.179-.03-.07-.1-.086-.176-.086H7.31l1.046-2.462c.026-.06.02-.15-.016-.205-.036-.054-.097-.073-.162-.073z"/>
</svg>
