<svg xmlns="http://www.w3.org/2000/svg" width="current" height="current" viewBox="0 0 40 16">
    <g fill="none" fill-rule="evenodd">
        <g>
            <g>
                <g>
                    <path fill="#FFF" d="M38.254 14.496V1.665c0-.8-.649-1.449-1.449-1.449H1.448C.648.216 0 .865 0 1.665v12.83c0 .8.649 1.449 1.448 1.449h35.357c.8 0 1.449-.648 1.449-1.448" transform="translate(-124 -788) translate(124 788) translate(1)"/>
                    <path fill="#ED1900" d="M36.805.216c.8 0 1.449.649 1.449 1.449v12.83l-.007.14c-.07.735-.689 1.309-1.442 1.309H1.448c-.8 0-1.448-.648-1.448-1.448V1.665l.007-.14C.077.791.696.216 1.448.216zM28.71 4.693h-1.702l2.361 5.813-1.092 2.541h1.606l3.597-8.354h-1.618l-1.079 2.589-.61 1.63-.564-1.666-.899-2.553zm-12.374-.132c-.671 0-1.462.288-1.918.947l-.095-.815h-1.367v8.354h1.462v-3.14l.097.132c.453.541 1.29.707 1.869.707 1.894 0 2.984-1.366 2.984-3.092 0-1.738-1.21-3.093-3.032-3.093zm-7.21-1.393c.007-.047-.05-.074-.083-.04L4.104 8.426c-.028.03-.006.081.036.081h2.286l-.551 4.486c-.006.047.052.074.084.04l4.938-5.297c.03-.03.007-.081-.035-.081H8.576zm13.965 1.381c-1.726-.012-3.081 1.055-3.081 3.093 0 2.073 1.295 3.152 3.044 3.14.66-.012 1.583-.348 1.918-1.043l.072.863h1.379V4.693H25.02l-.048.815-.078-.122c-.365-.516-1.069-.837-1.803-.837zm.131 1.307c2.302 0 2.302 3.584 0 3.584-.97 0-1.75-.672-1.75-1.798 0-1.127.78-1.786 1.75-1.786zm-6.994.12c1.055 0 1.678.755 1.678 1.678 0 .922-.683 1.678-1.678 1.678-.995 0-1.678-.756-1.678-1.678 0-.923.623-1.678 1.678-1.678z" transform="translate(-124 -788) translate(124 788) translate(1)"/>
                </g>
            </g>
        </g>
    </g>
</svg>
