<svg xmlns="http://www.w3.org/2000/svg" width="10" height="10" viewBox="0 0 10 10">
    <path fill="#FAFAFD" fill-rule="evenodd" d="M8 5c.552 0 1-.449 1-1H7c0 .551.449 1 1 1zm0 3.5V6c-.574 0-1.121-.247-1.5-.678C6.121 5.753 5.574 6 5 6s-1.121-.247-1.5-.678C3.121 5.753 2.574 6 2 6v2.5h6zM6 4H4c0 .551.449 1 1 1 .552 0 1-.449 1-1zM1 4c0 .551.449 1 1 1 .552 0 1-.449 1-1H1zm.809-2l-.5 1h7.382l-.5-1H1.809zm7.139-.724l1 2c.034.07.052.147.052.224V4c0 .737-.405 1.375-1 1.722V9c0 .276-.224.5-.5.5h-7c-.276 0-.5-.224-.5-.5V5.722C.406 5.375 0 4.737 0 4v-.5c0-.078.018-.154.053-.224l1-2C1.138 1.107 1.31 1 1.5 1h7c.19 0 .363.107.448.276z"/>
</svg>
