<svg xmlns="http://www.w3.org/2000/svg" width="16" height="16" viewBox="0 0 16 16" fill="none">
    <path fill-rule="evenodd" clip-rule="evenodd"
        d="M2.85238 3.9701L12.1311 13.0707C11.0039 13.9911 9.56639 14.5455 7.9996 14.5455C4.39008 14.5455 1.45528 11.6089 1.45528 8C1.45528 6.47919 1.98051 5.08202 2.85238 3.9701ZM7.9996 1.45455C11.6091 1.45455 14.5447 4.39111 14.5447 8C14.5447 9.52 14.0187 10.9172 13.1468 12.0291L3.86809 2.92848C4.9953 2.00808 6.43361 1.45455 7.9996 1.45455ZM7.9996 16C12.4107 16 16 12.4113 16 8C16 3.58869 12.4107 0 7.9996 0C3.58851 0 0 3.58869 0 8C0 12.4113 3.58851 16 7.9996 16Z"
        fill="#F57E00" />
</svg>