<svg xmlns="http://www.w3.org/2000/svg" width="20" height="20" viewBox="0 0 20 20" fill="none">
    <path fill-rule="evenodd" clip-rule="evenodd"
        d="M13.4993 12.2135C13.8549 12.5691 13.8549 13.1448 13.4993 13.4993C13.3215 13.6771 13.0892 13.766 12.8559 13.766C12.6236 13.766 12.3903 13.6771 12.2135 13.4993L9.99849 11.2863L7.78547 13.4993C7.6077 13.6771 7.37539 13.766 7.14206 13.766C6.90975 13.766 6.67643 13.6771 6.49866 13.4993C6.14413 13.1448 6.14413 12.5691 6.49866 12.2135L8.71269 10.0005L6.49866 7.78648C6.14413 7.43195 6.14413 6.85521 6.49866 6.50068C6.8542 6.14514 7.42993 6.14514 7.78547 6.50068L9.99849 8.7137L12.2135 6.50068C12.5681 6.14514 13.1438 6.14514 13.4993 6.50068C13.8549 6.85521 13.8549 7.43195 13.4993 7.78648L11.2853 10.0005L13.4993 12.2135ZM9.99949 0C4.48563 0 0 4.48664 0 10.0005C0 15.5144 4.48563 20 9.99949 20C15.5134 20 20 15.5144 20 10.0005C20 4.48664 15.5134 0 9.99949 0Z"
        fill="#CCCCCC" />
</svg>