<svg xmlns="http://www.w3.org/2000/svg" width="24" height="24" viewBox="0 0 24 24">
    <path fill="#DCDBE4" fill-rule="evenodd" d="M24 12c0 6.617-5.383 12-12 12S0 18.617 0 12 5.383 0 12 0s12 5.383 12 12zm-2.4 0c0-5.293-4.307-9.6-9.6-9.6-5.293 0-9.6 4.307-9.6 9.6 0 5.293 4.307 9.6 9.6 9.6 5.293 0 9.6-4.307 9.6-9.6zm-5.69-3.559c.415.111.738.434.849.848.11.415-.007.856-.31 1.16l-4.8 4.8c-.225.225-.53.352-.849.352-.318 0-.624-.127-.848-.353l-2.4-2.4c-.469-.468-.469-1.228 0-1.696.468-.469 1.228-.469 1.696 0l1.552 1.551 3.952-3.951c.303-.304.744-.422 1.159-.31z"/>
</svg>
