<svg width="140" height="140" viewBox="0 0 140 140" fill="none" xmlns="http://www.w3.org/2000/svg">
    <g clip-path="url(#clip0_11329_59807)">
        <circle cx="70" cy="70" r="69.5" stroke="white" />
        <path d="M59.8047 44.2354H45.4346V41.2764H59.8047V44.2354ZM44.7168 52.1016C47.7734 52.082 50.6299 52.0234 53.2861 51.9258C55.9521 51.8184 58.4375 51.623 60.7422 51.3398L61.0205 54.0791C58.6279 54.4893 56.1084 54.7627 53.4619 54.8994C50.8252 55.0264 48.042 55.0898 45.1123 55.0898L44.7168 52.1016ZM51.2207 52.7021H47.6025V43.5176H51.2207V52.7021ZM57.6221 52.7021H54.0479V43.5176H57.6221V52.7021ZM66.0156 58.6787H62.2803V39.0645H66.0156V58.6787ZM69.6191 49.6553H64.9316V46.5498H69.6191V49.6553ZM66.9678 65.2412H48.7158V62.2236H66.9678V65.2412ZM52.4512 63.0586H48.7158V56.833H52.4512V63.0586ZM93.9062 65.6953H90.3174V39.0059H93.9062V65.6953ZM91.5039 52.248H86.9922V49.2158H91.5039V52.248ZM87.915 64.4648H84.3994V39.416H87.915V64.4648ZM82.1436 59.001H71.5381V41.7891H82.1436V59.001ZM75.0391 56.0566H78.6572V44.7334H75.0391V56.0566ZM44.79 77.4922C44.7803 78.9277 44.3701 80.2461 43.5596 81.4473C42.7588 82.6484 41.5723 83.6543 40 84.4648C38.4375 85.2754 36.5527 85.8076 34.3457 86.0615L32.998 83.1172C34.834 82.9023 36.3916 82.5068 37.6709 81.9307C38.9502 81.3447 39.9023 80.666 40.5273 79.8945C41.1621 79.123 41.4844 78.3223 41.4941 77.4922V76.833H44.79V77.4922ZM46.6064 77.4922C46.6064 78.3223 46.9238 79.123 47.5586 79.8945C48.1934 80.666 49.1504 81.3447 50.4297 81.9307C51.7188 82.5068 53.2861 82.9023 55.1318 83.1172L53.7402 86.0615C51.543 85.8076 49.6533 85.2754 48.0713 84.4648C46.499 83.6543 45.3027 82.6533 44.4824 81.4619C43.6719 80.2607 43.2617 78.9375 43.252 77.4922V76.833H46.6064V77.4922ZM54.0332 78.1221H34.1113V75.1777H54.0332V78.1221ZM56.2598 90.3096H31.8848V87.3213H56.2598V90.3096ZM46.2402 94.8945H42.5488V89.1963H46.2402V94.8945ZM53.5791 100.241H34.7266V97.2236H53.5791V100.241ZM38.4766 98.2783H34.7266V92.5215H38.4766V98.2783ZM80.1514 100.769H76.3574V74.0059H80.1514V100.769ZM62.8955 82.6484H68.6523V76.1592H72.3291V94.5283H59.1602V76.1592H62.8955V82.6484ZM68.6523 91.4814V85.5488H62.8955V91.4814H68.6523ZM97.7441 92.1113H94.0674V87.3799H97.7441V92.1113ZM108.086 89.1377H83.7695V86.1494H108.086V89.1377ZM95.8838 91.0566C97.8076 91.0566 99.4629 91.2422 100.85 91.6133C102.246 91.9746 103.311 92.5215 104.043 93.2539C104.785 93.9863 105.161 94.8652 105.171 95.8906C105.161 96.916 104.785 97.7852 104.043 98.498C103.311 99.2207 102.246 99.7676 100.85 100.139C99.4531 100.51 97.7979 100.695 95.8838 100.695C93.9307 100.695 92.2559 100.51 90.8594 100.139C89.4727 99.7676 88.4033 99.2207 87.6514 98.498C86.9092 97.7852 86.5381 96.916 86.5381 95.8906C86.5381 94.8652 86.9092 93.9863 87.6514 93.2539C88.3936 92.5215 89.4629 91.9746 90.8594 91.6133C92.2559 91.252 93.9307 91.0664 95.8838 91.0566ZM95.8838 93.8691C94.6436 93.8789 93.6133 93.9619 92.793 94.1182C91.9824 94.2646 91.3672 94.4844 90.9473 94.7773C90.5371 95.0703 90.3369 95.4414 90.3467 95.8906C90.3369 96.3203 90.5371 96.6865 90.9473 96.9893C91.3672 97.2822 91.9873 97.5068 92.8076 97.6631C93.6279 97.8096 94.6533 97.8828 95.8838 97.8828C97.085 97.8828 98.0957 97.8047 98.916 97.6484C99.7461 97.4922 100.366 97.2676 100.776 96.9746C101.196 96.6816 101.406 96.3203 101.406 95.8906C101.406 95.4512 101.201 95.085 100.791 94.792C100.381 94.4893 99.7656 94.2646 98.9453 94.1182C98.125 93.9619 97.1045 93.8789 95.8838 93.8691ZM96.6455 77.2139C96.6357 78.5713 96.2207 79.8115 95.4004 80.9346C94.5898 82.0479 93.3887 82.9756 91.7969 83.7178C90.2148 84.4502 88.3057 84.9238 86.0693 85.1387L84.8389 82.1943C86.665 82.0381 88.2227 81.7061 89.5117 81.1982C90.8008 80.6807 91.7578 80.0752 92.3828 79.3818C93.0176 78.6787 93.3398 77.9561 93.3496 77.2139V76.5107H96.6455V77.2139ZM98.4619 77.2139C98.4619 77.9658 98.7744 78.6934 99.3994 79.3965C100.034 80.0898 100.996 80.6904 102.285 81.1982C103.584 81.7061 105.171 82.0381 107.046 82.1943L105.728 85.1387C103.501 84.9238 101.592 84.4502 100 83.7178C98.4082 82.9756 97.1973 82.0479 96.3672 80.9346C95.5371 79.8115 95.1172 78.5713 95.1074 77.2139V76.5107H98.4619V77.2139ZM105.889 78.1074H85.9668V75.1631H105.889V78.1074Z" fill="white" />
    </g>
    <defs>
        <clipPath id="clip0_11329_59807">
            <rect width="140" height="140" fill="white" />
        </clipPath>
    </defs>
</svg>