<svg xmlns="http://www.w3.org/2000/svg" width="16" height="16" viewBox="0 0 16 16">
    <path fill="#FFF" fill-rule="evenodd" d="M15.92 3.665c.052.104.079.219.08.335v11.2a.8.8 0 0 1-.8.8H.8a.8.8 0 0 1-.8-.8V4a.786.786 0 0 1 .08-.335c.002-.007 0-.015.004-.023l1.6-3.2A.8.8 0 0 1 2.4 0h11.2a.8.8 0 0 1 .716.442l1.6 3.2c.003.008.002.016.005.023zM1.6 14.4h12.8V4.8H9.6v1.587c0 .442-3.2.442-3.2 0V4.8H1.6v9.6zM2.894 1.6l-.8 1.6H6.4V1.6H2.894zm11.012 1.6l-.8-1.6H9.6v1.6h4.306zM4 11.2h4.8a.8.8 0 1 1 0 1.6H4a.8.8 0 1 1 0-1.6zm3.2-1.6H4A.8.8 0 1 1 4 8h3.2a.8.8 0 1 1 0 1.6z"/>
</svg>
