<svg xmlns="http://www.w3.org/2000/svg" width="14" height="14" viewBox="0 0 14 14">
    <path fill="#F57E00" fill-rule="evenodd" d="M7.731 4.667h-1.74l-.146.004c-1.062.062-1.953.793-2.145 1.785l-1.084 5.055h-.218l-.102.005c-.502.048-.896.446-.896.928v1.245l.007.063c.03.141.165.248.326.248h10.223l.067-.006c.152-.03.266-.155.266-.305v-1.245l-.005-.095c-.051-.47-.477-.838-.993-.838h-.185l-1.083-5.056-.03-.134c-.256-.966-1.185-1.654-2.262-1.654zM4.018 1.27c-.215-.372-.69-.5-1.062-.285-.372.215-.5.69-.285 1.063l.778 1.347c.214.372.69.5 1.062.284.372-.214.5-.69.285-1.062l-.778-1.347zm6.715-.285c-.372-.215-.847-.087-1.062.285l-.778 1.347c-.215.372-.087.848.285 1.062.372.215.847.088 1.062-.284l.778-1.347c.215-.372.087-.848-.285-1.063zM6.844 0c-.43 0-.777.348-.777.778v1.555c0 .43.348.778.777.778.43 0 .778-.348.778-.778V.778c0-.43-.348-.778-.778-.778z"/>
</svg>
