<svg width="140" height="140" viewBox="0 0 140 140" fill="none" xmlns="http://www.w3.org/2000/svg">
    <g clip-path="url(#clip0_11258_59837)">
        <circle cx="70" cy="70" r="69.5" stroke="white" />
        <path d="M47.1338 65.9414H42.5781V62.9385H47.1338V65.9414ZM47.1338 74.2178H42.5781V71.1709H47.1338V74.2178ZM55.0146 83.6953H51.4258V57.0059H55.0146V83.6953ZM49.5508 82.4648H46.0498V57.416H49.5508V82.4648ZM37.9346 58.9248C39.1064 58.9248 40.1367 59.3154 41.0254 60.0967C41.9238 60.8779 42.6123 61.9961 43.0908 63.4512C43.5791 64.9062 43.8232 66.6152 43.8232 68.5781C43.8232 70.5508 43.5791 72.2695 43.0908 73.7344C42.6123 75.1895 41.9238 76.3125 41.0254 77.1035C40.1367 77.8848 39.1064 78.2754 37.9346 78.2754C36.7627 78.2754 35.7422 77.8848 34.873 77.1035C34.0039 76.3125 33.3252 75.1895 32.8369 73.7344C32.3584 72.2695 32.1191 70.5508 32.1191 68.5781C32.1191 66.6152 32.3584 64.9062 32.8369 63.4512C33.3252 61.9961 34.0039 60.8779 34.873 60.0967C35.7422 59.3154 36.7627 58.9248 37.9346 58.9248ZM37.9346 62.4697C37.4072 62.4697 36.9678 62.6943 36.6162 63.1436C36.2646 63.5928 35.9912 64.2764 35.7959 65.1943C35.6104 66.1025 35.5176 67.2305 35.5176 68.5781C35.5176 69.9355 35.6104 71.0684 35.7959 71.9766C35.9912 72.8848 36.2646 73.5635 36.6162 74.0127C36.9678 74.4619 37.4072 74.6865 37.9346 74.6865C38.4521 74.6865 38.8965 74.457 39.2676 73.998C39.6387 73.5391 39.9219 72.8604 40.1172 71.9619C40.3223 71.0537 40.4248 69.9258 40.4248 68.5781C40.4248 67.2305 40.3223 66.1025 40.1172 65.1943C39.9219 64.2764 39.6387 63.5928 39.2676 63.1436C38.8965 62.6943 38.4521 62.4697 37.9346 62.4697ZM82.4512 63.583H77.8223V60.5654H82.4512V63.583ZM82.4512 69.3984H77.8223V66.293H82.4512V69.3984ZM78.9795 72.7529H75.2441V57.0059H78.9795V72.7529ZM78.9795 83.6953H75.2441V76.8545H61.0352V73.8223H78.9795V83.6953ZM65.3125 58.5C66.6797 58.5 67.915 58.7783 69.0186 59.335C70.1318 59.8916 71.0059 60.6631 71.6406 61.6494C72.2754 62.6357 72.5977 63.749 72.6074 64.9893C72.5977 66.2393 72.2754 67.3623 71.6406 68.3584C71.0059 69.3447 70.1318 70.1211 69.0186 70.6875C67.915 71.2539 66.6797 71.5371 65.3125 71.5371C63.9355 71.5371 62.6904 71.2539 61.5771 70.6875C60.4736 70.1211 59.5996 69.3447 58.9551 68.3584C58.3203 67.3623 58.0029 66.2393 58.0029 64.9893C58.0029 63.749 58.3203 62.6357 58.9551 61.6494C59.5996 60.6631 60.4785 59.8916 61.5918 59.335C62.7051 58.7783 63.9453 58.5 65.3125 58.5ZM65.3125 61.6641C64.6094 61.6738 63.9844 61.8105 63.4375 62.0742C62.8906 62.3281 62.4609 62.709 62.1484 63.2168C61.8359 63.7148 61.6797 64.3057 61.6797 64.9893C61.6797 65.6826 61.8359 66.2832 62.1484 66.791C62.4609 67.2891 62.8906 67.6748 63.4375 67.9482C63.9941 68.2119 64.6191 68.3438 65.3125 68.3438C66.0059 68.3438 66.626 68.2119 67.1729 67.9482C67.7295 67.6748 68.1641 67.2891 68.4766 66.791C68.7988 66.2832 68.96 65.6826 68.96 64.9893C68.96 64.3154 68.7988 63.7295 68.4766 63.2314C68.1641 62.7236 67.7344 62.3379 67.1875 62.0742C66.6406 61.8105 66.0156 61.6738 65.3125 61.6641ZM97.7441 75.1113H94.0674V70.3799H97.7441V75.1113ZM108.086 72.1377H83.7695V69.1494H108.086V72.1377ZM95.8838 74.0566C97.8076 74.0566 99.4629 74.2422 100.85 74.6133C102.246 74.9746 103.311 75.5215 104.043 76.2539C104.785 76.9863 105.161 77.8652 105.171 78.8906C105.161 79.916 104.785 80.7852 104.043 81.498C103.311 82.2207 102.246 82.7676 100.85 83.1387C99.4531 83.5098 97.7979 83.6953 95.8838 83.6953C93.9307 83.6953 92.2559 83.5098 90.8594 83.1387C89.4727 82.7676 88.4033 82.2207 87.6514 81.498C86.9092 80.7852 86.5381 79.916 86.5381 78.8906C86.5381 77.8652 86.9092 76.9863 87.6514 76.2539C88.3936 75.5215 89.4629 74.9746 90.8594 74.6133C92.2559 74.252 93.9307 74.0664 95.8838 74.0566ZM95.8838 76.8691C94.6436 76.8789 93.6133 76.9619 92.793 77.1182C91.9824 77.2646 91.3672 77.4844 90.9473 77.7773C90.5371 78.0703 90.3369 78.4414 90.3467 78.8906C90.3369 79.3203 90.5371 79.6865 90.9473 79.9893C91.3672 80.2822 91.9873 80.5068 92.8076 80.6631C93.6279 80.8096 94.6533 80.8828 95.8838 80.8828C97.085 80.8828 98.0957 80.8047 98.916 80.6484C99.7461 80.4922 100.366 80.2676 100.776 79.9746C101.196 79.6816 101.406 79.3203 101.406 78.8906C101.406 78.4512 101.201 78.085 100.791 77.792C100.381 77.4893 99.7656 77.2646 98.9453 77.1182C98.125 76.9619 97.1045 76.8789 95.8838 76.8691ZM96.6455 60.2139C96.6357 61.5713 96.2207 62.8115 95.4004 63.9346C94.5898 65.0479 93.3887 65.9756 91.7969 66.7178C90.2148 67.4502 88.3057 67.9238 86.0693 68.1387L84.8389 65.1943C86.665 65.0381 88.2227 64.7061 89.5117 64.1982C90.8008 63.6807 91.7578 63.0752 92.3828 62.3818C93.0176 61.6787 93.3398 60.9561 93.3496 60.2139V59.5107H96.6455V60.2139ZM98.4619 60.2139C98.4619 60.9658 98.7744 61.6934 99.3994 62.3965C100.034 63.0898 100.996 63.6904 102.285 64.1982C103.584 64.7061 105.171 65.0381 107.046 65.1943L105.728 68.1387C103.501 67.9238 101.592 67.4502 100 66.7178C98.4082 65.9756 97.1973 65.0479 96.3672 63.9346C95.5371 62.8115 95.1172 61.5713 95.1074 60.2139V59.5107H98.4619V60.2139ZM105.889 61.1074H85.9668V58.1631H105.889V61.1074Z" fill="white" />
    </g>
    <defs>
        <clipPath id="clip0_11258_59837">
            <rect width="140" height="140" fill="white" />
        </clipPath>
    </defs>
</svg>