<svg xmlns="http://www.w3.org/2000/svg" width="22" height="22" viewBox="0 0 22 22">
    <path fill="#C3C2CC" fill-rule="evenodd" d="M12.303 6c1.655 0 3.071 1.209 3.367 2.874L17.262 17h.271c.809 0 1.467.673 1.467 1.5v2c0 .276-.219.5-.489.5H3.49A.495.495 0 0 1 3 20.5v-2c0-.827.658-1.5 1.467-1.5h.32L6.38 8.876C6.675 7.209 8.091 6 9.747 6zm4.664-4.541a1 1 0 0 1 .366 1.366l-1 1.732a1 1 0 1 1-1.732-1l1-1.732a1 1 0 0 1 1.366-.366zM5 1.459a1 1 0 0 1 1.366.366l1 1.732a1 1 0 0 1-1.732 1l-1-1.732A1 1 0 0 1 5 1.459zM11 0a1 1 0 0 1 1 1v2a1 1 0 1 1-2 0V1a1 1 0 0 1 1-1z"/>
</svg>
