<svg width="140" height="140" viewBox="0 0 140 140" fill="none" xmlns="http://www.w3.org/2000/svg">
    <g clip-path="url(#clip0_11258_59813)">
        <circle cx="70" cy="70" r="69.5" stroke="white" />
        <path d="M59.8047 44.2354H45.4346V41.2764H59.8047V44.2354ZM44.7168 52.1016C47.7734 52.082 50.6299 52.0234 53.2861 51.9258C55.9521 51.8184 58.4375 51.623 60.7422 51.3398L61.0205 54.0791C58.6279 54.4893 56.1084 54.7627 53.4619 54.8994C50.8252 55.0264 48.042 55.0898 45.1123 55.0898L44.7168 52.1016ZM51.2207 52.7021H47.6025V43.5176H51.2207V52.7021ZM57.6221 52.7021H54.0479V43.5176H57.6221V52.7021ZM66.0156 58.6787H62.2803V39.0645H66.0156V58.6787ZM69.6191 49.6553H64.9316V46.5498H69.6191V49.6553ZM66.9678 65.2412H48.7158V62.2236H66.9678V65.2412ZM52.4512 63.0586H48.7158V56.833H52.4512V63.0586ZM93.9062 65.6953H90.3174V39.0059H93.9062V65.6953ZM91.5039 52.248H86.9922V49.2158H91.5039V52.248ZM87.915 64.4648H84.3994V39.416H87.915V64.4648ZM82.1436 59.001H71.5381V41.7891H82.1436V59.001ZM75.0391 56.0566H78.6572V44.7334H75.0391V56.0566ZM54.8096 88.9033H51.0596V84.8311H54.8096V88.9033ZM52.8906 75.1338C54.1699 75.1338 55.3223 75.3584 56.3477 75.8076C57.373 76.2568 58.1689 76.8965 58.7354 77.7266C59.3115 78.5469 59.6045 79.4893 59.6143 80.5537C59.6045 81.5889 59.3115 82.5166 58.7354 83.3369C58.1592 84.1475 57.3584 84.7871 56.333 85.2559C55.3174 85.7148 54.1699 85.9443 52.8906 85.9443C51.6016 85.9443 50.4443 85.7148 49.4189 85.2559C48.4033 84.7871 47.6074 84.1475 47.0312 83.3369C46.4648 82.5166 46.1865 81.5889 46.1963 80.5537C46.1865 79.4893 46.4648 78.5469 47.0312 77.7266C47.6074 76.8965 48.4033 76.2568 49.4189 75.8076C50.4346 75.3584 51.5918 75.1338 52.8906 75.1338ZM52.8906 77.9463C52.2461 77.9463 51.6797 78.0488 51.1914 78.2539C50.7129 78.459 50.3369 78.7568 50.0635 79.1475C49.79 79.5381 49.6582 80.0068 49.668 80.5537C49.6582 81.0811 49.79 81.5352 50.0635 81.916C50.3369 82.2969 50.7129 82.5947 51.1914 82.8096C51.6797 83.0146 52.2461 83.1123 52.8906 83.1025C53.5254 83.1123 54.082 83.0146 54.5605 82.8096C55.0488 82.5947 55.4248 82.2969 55.6885 81.916C55.9619 81.5352 56.0986 81.0811 56.0986 80.5537C56.0986 80.0068 55.9668 79.5381 55.7031 79.1475C55.4395 78.7471 55.0635 78.4492 54.5752 78.2539C54.0869 78.0488 53.5254 77.9463 52.8906 77.9463ZM66.1914 94.3965H62.4268V74.0645H66.1914V94.3965ZM69.6045 85.5488H64.8584V82.4434H69.6045V85.5488ZM67.0996 100.197H48.3057V97.1943H67.0996V100.197ZM52.085 98.5273H48.3057V92.624H52.085V98.5273ZM44.7754 87.9512C47.6562 87.9609 50.4785 87.9072 53.2422 87.79C56.0059 87.6729 58.5742 87.4434 60.9473 87.1016L61.2256 89.8115C58.7744 90.251 56.2061 90.5488 53.5205 90.7051C50.835 90.8516 48.0566 90.9199 45.1855 90.9102L44.7754 87.9512ZM80.6787 95.8906H77.0312V89.5625H80.6787V95.8906ZM89.2188 95.876H85.5566V89.5332H89.2188V95.876ZM95.1807 97.7363H70.8057V94.6748H95.1807V97.7363ZM92.3682 84.5967H77.3389V89.1523H73.6182V81.623H88.6768V78.7666H73.5742V75.7637H92.3682V84.5967ZM92.998 90.5879H73.6182V87.5557H92.998V90.5879Z" fill="white" />
    </g>
    <defs>
        <clipPath id="clip0_11258_59813">
            <rect width="140" height="140" fill="white" />
        </clipPath>
    </defs>
</svg>