<svg xmlns="http://www.w3.org/2000/svg" width="16" height="16" viewBox="0 0 16 16">
    <path fill="#FFF" fill-rule="evenodd" d="M8.129 0H7.87a7.871 7.871 0 0 0 0 15.743h.258c1.085 0 2.14-.22 3.114-.64l.264-.12 2.986.977a.8.8 0 0 0 1.007-1.017l-.886-2.61A7.871 7.871 0 0 0 8.128 0zM9.5 4.8H6.9c-.09 0-.169.083-.193.17l-1.1 3.996a.194.194 0 0 0 .193.246h1.426l-.816 2.525a.2.2 0 1 0 .34.197l3.599-3.973a.2.2 0 0 0-.149-.335H8.603l1.08-2.515a.218.218 0 0 0-.016-.197c-.037-.056-.1-.114-.167-.114z"/>
</svg>
