<svg xmlns="http://www.w3.org/2000/svg" width="48" height="48" viewBox="0 0 48 48">
    <g fill="none" fill-rule="evenodd">
        <circle cx="24" cy="24" r="24" fill="#E2B4EF"/>
        <path fill="#FFF" d="M19 15h2a2 2 0 0 1 2 2v4a2 2 0 0 1-2 2h-4a2 2 0 0 1-2-2v-2a4 4 0 0 1 4-4zM17 25h4a2 2 0 0 1 2 2v4a2 2 0 0 1-2 2h-2a4 4 0 0 1-4-4v-2a2 2 0 0 1 2-2zM27 15h4a2 2 0 0 1 2 2v4a2 2 0 0 1-2 2h-4a2 2 0 0 1-2-2v-4a2 2 0 0 1 2-2zM27 25h4a2 2 0 0 1 2 2v2a4 4 0 0 1-4 4h-2a2 2 0 0 1-2-2v-4a2 2 0 0 1 2-2z"/>
    </g>
</svg>
