<svg xmlns="http://www.w3.org/2000/svg" width="16" height="16" viewBox="0 0 16 16">
    <g fill="#C3C2CC" fill-rule="evenodd">
        <path d="M3.688 1.785l.07.058L4.95 3.037l.003-.003 8.78 8.81.038.077a.5.5 0 0 1-.052.452l-.063.077-.707.707a.5.5 0 0 1-.638.058l-.07-.058-1.321-1.321H9.8v.364a1.8 1.8 0 0 1-3.6 0v-.364H2v-1.18l1-.772V7c0-.889.232-1.724.639-2.447L2.343 3.257a.5.5 0 0 1-.058-.637l.058-.07.707-.707a.5.5 0 0 1 .638-.058zM8 2a5 5 0 0 1 5 5v1.586l-6.39-6.39A5.003 5.003 0 0 1 8 2z"/>
    </g>
</svg>
