<svg xmlns="http://www.w3.org/2000/svg" width="48" height="48" viewBox="0 0 48 48">
    <g fill="none" fill-rule="evenodd">
        <circle cx="24" cy="24" r="24" fill="#F49281"/>
        <path fill="#FFF" fill-rule="nonzero" d="M24 34c5.523 0 10-4.477 10-10s-4.477-10-10-10-10 4.477-10 10 4.477 10 10 10zm0-2a8 8 0 1 1 0-16 8 8 0 0 1 0 16z"/>
        <path fill="#FFF" d="M15 23h2a1 1 0 0 1 0 2h-2a1 1 0 0 1 0-2zM31 23h2a1 1 0 0 1 0 2h-2a1 1 0 0 1 0-2zM25 15v2a1 1 0 0 1-2 0v-2a1 1 0 0 1 2 0zM25 31v2a1 1 0 0 1-2 0v-2a1 1 0 0 1 2 0z"/>
        <circle cx="24" cy="24" r="2" fill="#FFF"/>
    </g>
</svg>
