<svg xmlns="http://www.w3.org/2000/svg" xmlns:xlink="http://www.w3.org/1999/xlink" width="32" height="32" viewBox="0 0 32 32">
    <defs>
        <circle id="prefix__a" cx="16" cy="16" r="16"/>
    </defs>
    <g fill="none" fill-rule="evenodd">
        <mask id="prefix__b" fill="#fff">
            <use xlink:href="#prefix__a"/>
        </mask>
        <use fill="#FF5058" xlink:href="#prefix__a"/>
        <g fill-rule="nonzero" mask="url(#prefix__b)">
            <g>
                <path fill="#FFF" d="M2.343 2.346C3.854.835 5.863 0 8 0c2.138 0 4.146.831 5.657 2.343 2.519 2.518 3.02 6.337 1.436 9.366-.25.478-.552.936-.906 1.366.358.734.784 1.223 1.26 1.458.292.144.456.46.409.781-.05.325-.298.577-.623.627-.178.027-.37.043-.567.043-.982 0-2.014-.338-2.876-.931-1.16.623-2.463.952-3.79.952-2.139 0-4.147-.832-5.658-2.343C.83 12.15 0 10.139 0 8.004c0-2.135.831-4.146 2.343-5.658z" transform="translate(8 7)"/>
                <path fill="#FF5058" d="M6.536 13.15c-.088.11-.146.124-.225.136-.078.012-.146-.013-.186-.038-.102-.067-.149-.18-.113-.309l1.02-3.598H5.25c-.078 0-.152-.068-.199-.138-.047-.071-.063-.177-.042-.262l1.375-5.72c.03-.125.129-.221.241-.221H9.7c.084 0 .162.052.208.132.047.08.054.212.021.3l-1.507 3.63h2.33c.098 0 .187.037.227.14.04.103.024.195-.042.279l-4.4 5.669z" transform="translate(8 7)"/>
            </g>
        </g>
    </g>
</svg>
