<svg xmlns="http://www.w3.org/2000/svg" width="48" height="48" viewBox="0 0 48 48">
    <g fill="none" fill-rule="evenodd">
        <circle cx="24" cy="24" r="24" fill="#8BE3FD"/>
        <path fill="#FFF" d="M22 14h9a3 3 0 0 1 3 3v9a8 8 0 0 1-8 8h-4a8 8 0 0 1-8-8v-4a8 8 0 0 1 8-8z"/>
        <path fill="#74D7F4" fill-rule="nonzero" d="M26.007 27.763a.909.909 0 0 0 1.353-.145l.963-1.399 2.262 1.613a.91.91 0 0 0 1.24-.176.83.83 0 0 0-.183-1.191l-3.014-2.149a.909.909 0 0 0-1.267.214l-.894 1.298-3.9-3.591a.913.913 0 0 0-1.2-.024L16.3 26.51a.828.828 0 0 0-.078 1.202.912.912 0 0 0 1.25.075l4.456-3.78 4.08 3.756z"/>
        <circle cx="28" cy="19" r="2" fill="#74D7F4"/>
    </g>
</svg>
