<svg xmlns="http://www.w3.org/2000/svg" width="60" height="60" viewBox="0 0 60 60">
    <g fill="#C3C2CC" fill-rule="nonzero">
        <path d="M8.783 8.787C14.443 3.126 21.963 0 29.97 0s15.527 3.113 21.188 8.774c9.432 9.432 11.308 23.734 5.376 35.075a29.758 29.758 0 0 1-3.393 5.118c1.343 2.748 2.938 4.581 4.72 5.46a2.806 2.806 0 0 1 1.531 2.924A2.783 2.783 0 0 1 57.06 59.7c-.666.1-1.381.163-2.122.163-3.678 0-7.544-1.268-10.77-3.49a29.998 29.998 0 0 1-14.196 3.565c-8.009 0-15.527-3.113-21.188-8.774C3.12 45.503.008 37.971.008 29.975c0-7.996 3.113-15.527 8.775-21.188zm4.211 38.15c4.537 4.532 10.57 7.025 16.977 7.025 4.286 0 8.212-1.11 11.875-3.263.238-.136.563-.388 1.02-.388.456 0 .876.136 1.148.34 3.08 2.664 5.585 3.198 7.116 3.232-1.825-1.36-3.257-3.587-3.656-6.248-.088-.587.159-1.447.744-2.159 8.247-10.027 7.688-23.536-1.271-32.488-4.536-4.533-10.57-7.026-16.976-7.026-6.419 0-12.44 2.493-16.977 7.026-9.366 9.37-9.366 24.6 0 33.949z"/>
        <path d="M25.607 45.449c-.262.332-.437.372-.673.408a.817.817 0 0 1-.558-.114.8.8 0 0 1-.34-.925l3.06-10.794H21.75c-.234 0-.455-.204-.596-.416a1.052 1.052 0 0 1-.127-.786l4.125-17.162c.09-.371.386-.66.723-.66h9.22c.253 0 .489.156.627.396.139.24.162.636.063.9l-4.521 10.888h6.986c.296 0 .565.114.685.423.12.309.07.584-.127.836L25.607 45.449z"/>
    </g>
</svg>
