<svg width="35" height="16" viewBox="0 0 35 16" xmlns="http://www.w3.org/2000/svg">
    <g fill="none" fill-rule="evenodd">
        <rect fill="#D80C18" width="35" height="16" rx="2"/>
        <path d="m9.226 3.003-.56 4.563h2.325a.05.05 0 0 1 .036.083l-5.024 5.388c-.033.035-.091.008-.085-.04l.56-4.563H4.153a.05.05 0 0 1-.036-.083L9.14 2.963a.05.05 0 0 1 .085.04zm11.803.706v8.59h-1.306V3.71h1.306zm8.447 0v8.59h-1.345V3.71h1.345zm-10.265.048v8.38h-1.288V8.138h-.776V6.875h.776V3.757h1.288zm5.398-.02c.353 0 .677.05.97.149.294.099.548.25.763.455.214.203.385.458.511.765.126.306.199.663.218 1.071a30.552 30.552 0 0 1 0 3.052 3.16 3.16 0 0 1-.218 1.076 2.2 2.2 0 0 1-.511.76 2.037 2.037 0 0 1-.762.455 3.031 3.031 0 0 1-.971.148c-.714 0-1.291-.2-1.733-.602-.442-.402-.685-1.015-.73-1.837a95.334 95.334 0 0 1-.033-.785 19.155 19.155 0 0 1 0-1.483c.01-.248.021-.51.034-.784.044-.823.287-1.435.729-1.836.442-.403 1.02-.604 1.733-.604zm-7.084.182v1.187h-.531l-.016 5.075.614-.024v1.167l-4.47.192v-1.187l.624-.024-.017-5.2h-.531V3.92h4.327zm7.084 1.005c-.165 0-.312.027-.44.081a.814.814 0 0 0-.337.268c-.095.124-.17.288-.227.492-.057.205-.095.46-.114.766-.025.376-.038.767-.038 1.172 0 .405.013.796.038 1.172.02.306.057.561.114.765.057.204.132.368.227.493a.82.82 0 0 0 .336.268c.13.054.276.08.44.08.165 0 .312-.026.44-.08a.82.82 0 0 0 .337-.268c.095-.125.17-.289.228-.493.056-.204.094-.46.113-.765a17.748 17.748 0 0 0 0-2.343 3.805 3.805 0 0 0-.113-.767 1.454 1.454 0 0 0-.228-.492.814.814 0 0 0-.336-.268 1.127 1.127 0 0 0-.44-.081zm-8.894.182h-.707l.016 5.15.675-.026.016-5.124z" fill="#FFF"/>
    </g>
</svg>
