<svg xmlns="http://www.w3.org/2000/svg" width="20" height="20" viewBox="0 0 20 20">
    <path fill="current" fill-rule="evenodd" d="M10.16 0h-.32C4.404 0 0 4.405 0 9.84c0 5.433 4.405 9.838 9.84 9.838h.32c1.358 0 2.677-.275 3.894-.8l.33-.15 3.733 1.222c.783.257 1.522-.49 1.258-1.271l-1.107-3.263C19.388 13.792 20 11.861 20 9.84 20 4.405 15.595 0 10.16 0zm0 2h-.32l-.25.004C5.376 2.135 2 5.593 2 9.839c0 4.33 3.51 7.84 7.84 7.84h.32l.354-.009c1.173-.051 2.3-.362 3.32-.903.24-.128.521-.152.78-.067l2.224.728-.63-1.86-.034-.121c-.058-.284.01-.581.19-.813C17.418 13.27 18 11.6 18 9.839 18 5.51 14.49 2 10.16 2zM10 9c.552 0 1 .448 1 1s-.448 1-1 1-1-.448-1-1 .448-1 1-1zM6 9c.552 0 1 .448 1 1s-.448 1-1 1-1-.448-1-1 .448-1 1-1zm8 0c.552 0 1 .448 1 1s-.448 1-1 1-1-.448-1-1 .448-1 1-1z" transform="translate(-520 -615) translate(520 615)"/>
</svg>
