<svg xmlns="http://www.w3.org/2000/svg" width="20" height="20" viewBox="0 0 20 20">
    <path fill="current" d="M4.556 0h13.333H4.556l-.13.007c-.553.065-.886.534-.886 1.104v4.445l.007.13c.064.552.439.98 1.009.98.613 0 .941-.497.941-1.11v-3.55h11.506V18.02H5.497v-3.576l-.007-.13c-.064-.552-.365-.98-.934-.98-.614 0-1.016.497-1.016 1.11v4.445l.007.13c.064.552.439.981 1.009.981h13.333l.13-.007c.552-.065.981-.534.981-1.104V1.11l-.007-.13C18.928.43 18.459 0 17.889 0H4.556zm3.512 6.185l-.09-.061c-.338-.202-.782-.157-1.074.134l-.073.083c-.27.346-.245.847.073 1.165l1.581 1.58H.882c-.487 0-.882.396-.882.883s.395.882.882.882h7.665l-1.643 1.643-.073.084c-.27.346-.245.846.073 1.164.344.344.903.344 1.247 0l3.118-3.118.074-.083c.269-.346.244-.847-.074-1.165L8.151 6.258l-.083-.073z" transform="translate(-520 -477) translate(520 477)"/>
</svg>
