<svg xmlns="http://www.w3.org/2000/svg" width="20" height="20" viewBox="0 0 20 20">
    <path fill="current" d="M19 0h-9c-.265 0-.52.106-.707.293l-9 9C.105 9.48 0 9.735 0 10c0 .265.105.52.293.707l9 9c.187.188.442.294.707.294.266 0 .52-.106.707-.294l9-9c.188-.187.293-.442.293-.707V1c0-.552-.448-1-1-1zm-9 17.586L2.414 10 4 8.414 11.586 16 10 17.586zm8-8l-5 5L5.414 7l5-5H18v7.586zM15 6c.552 0 1-.448 1-1s-.448-1-1-1-1 .448-1 1 .448 1 1 1z" transform="translate(-520 -408) translate(520 408)"/>
</svg>
