<svg xmlns="http://www.w3.org/2000/svg" width="20" height="20" viewBox="0 0 20 20">
    <path fill="current" d="M10.895 1.44c-.339-.646-1.449-.646-1.789 0l-9 17.138c-.155.295-.14.646.043.927.183.28.505.451.852.45h18c.347.001.67-.17.852-.45.182-.281.198-.632.042-.927l-9-17.138zM2.62 17.956l7.382-14 7.382 14H2.62zm6.382-7c0 .552.448 1 1 1s1-.448 1-1v-2c0-.553-.448-1-1-1s-1 .447-1 1v2zm-.1 4c0 .607.494 1.1 1.101 1.099.608-.001 1.1-.494 1.1-1.101-.001-.393-.211-.756-.552-.953-.34-.196-.76-.195-1.1.001-.34.197-.55.56-.549.954z" transform="translate(-520 -737) translate(520 737)"/>
</svg>
